<?xml version="1.0" encoding="UTF-8" standalone="no"?>
<!DOCTYPE svg PUBLIC "-//W3C//DTD SVG 1.1//EN"
 "http://www.w3.org/Graphics/SVG/1.1/DTD/svg11.dtd">
<!-- Generated by graphviz version 13.1.0 (20250701.0955)
 -->
<!-- Title: src/driver_ssd1306.h Pages: 1 -->
<svg width="530pt" height="232pt"
 viewBox="0.00 0.00 530.00 232.00" xmlns="http://www.w3.org/2000/svg" xmlns:xlink="http://www.w3.org/1999/xlink">
<g id="graph0" class="graph" transform="scale(1 1) rotate(0) translate(4 228)">
<title>src/driver_ssd1306.h</title>
<!-- Node1 -->
<g id="Node000001" class="node">
<title>Node1</title>
<g id="a_Node000001"><a xlink:title="driver ssd1306 header file">
<polygon fill="#999999" stroke="#666666" points="390.25,-224 283.5,-224 283.5,-204 390.25,-204 390.25,-224"/>
<text xml:space="preserve" text-anchor="middle" x="336.88" y="-210.5" font-family="Helvetica,sans-Serif" font-size="10.00">src/driver_ssd1306.h</text>
</a>
</g>
</g>
<!-- Node2 -->
<g id="Node000002" class="node">
<title>Node2</title>
<g id="a_Node000002"><a xlink:href="driver__ssd1306__interface_8h.html" target="_top" xlink:title="driver ssd1306 interface header file">
<polygon fill="white" stroke="#666666" points="332.12,-168 209.62,-168 209.62,-136 332.12,-136 332.12,-168"/>
<text xml:space="preserve" text-anchor="start" x="217.62" y="-154.5" font-family="Helvetica,sans-Serif" font-size="10.00">interface/driver_ssd1306</text>
<text xml:space="preserve" text-anchor="middle" x="270.88" y="-142.5" font-family="Helvetica,sans-Serif" font-size="10.00">_interface.h</text>
</a>
</g>
</g>
<!-- Node1&#45;&gt;Node2 -->
<g id="edge1_Node000001_Node000002" class="edge">
<title>Node1&#45;&gt;Node2</title>
<g id="a_edge1_Node000001_Node000002"><a xlink:title=" ">
<path fill="none" stroke="#63b8ff" d="M318.15,-195.98C308.6,-187.29 297.07,-176.81 287.79,-168.37"/>
<polygon fill="#63b8ff" stroke="#63b8ff" points="315.69,-198.47 325.44,-202.61 320.4,-193.29 315.69,-198.47"/>
</a>
</g>
</g>
<!-- Node10 -->
<g id="Node000010" class="node">
<title>Node10</title>
<g id="a_Node000010"><a xlink:href="driver__ssd1306_8c.html" target="_top" xlink:title="driver ssd1306 source file">
<polygon fill="white" stroke="#666666" points="457.25,-162 350.5,-162 350.5,-142 457.25,-142 457.25,-162"/>
<text xml:space="preserve" text-anchor="middle" x="403.88" y="-148.5" font-family="Helvetica,sans-Serif" font-size="10.00">src/driver_ssd1306.c</text>
</a>
</g>
</g>
<!-- Node1&#45;&gt;Node10 -->
<g id="edge9_Node000001_Node000010" class="edge">
<title>Node1&#45;&gt;Node10</title>
<g id="a_edge9_Node000001_Node000010"><a xlink:title=" ">
<path fill="none" stroke="#63b8ff" d="M355.61,-196.22C367.94,-185.18 383.62,-171.14 393.7,-162.11"/>
<polygon fill="#63b8ff" stroke="#63b8ff" points="353.59,-193.34 348.47,-202.62 358.26,-198.55 353.59,-193.34"/>
</a>
</g>
</g>
<!-- Node3 -->
<g id="Node000003" class="node">
<title>Node3</title>
<g id="a_Node000003"><a xlink:href="driver__ssd1306__advance_8h.html" target="_top" xlink:title="driver ssd1306 advance header file">
<polygon fill="white" stroke="#666666" points="121.75,-100 0,-100 0,-68 121.75,-68 121.75,-100"/>
<text xml:space="preserve" text-anchor="start" x="8" y="-86.5" font-family="Helvetica,sans-Serif" font-size="10.00">example/driver_ssd1306</text>
<text xml:space="preserve" text-anchor="middle" x="60.88" y="-74.5" font-family="Helvetica,sans-Serif" font-size="10.00">_advance.h</text>
</a>
</g>
</g>
<!-- Node2&#45;&gt;Node3 -->
<g id="edge2_Node000002_Node000003" class="edge">
<title>Node2&#45;&gt;Node3</title>
<g id="a_edge2_Node000002_Node000003"><a xlink:title=" ">
<path fill="none" stroke="#63b8ff" d="M210.68,-132.08C178.83,-122.07 140.22,-109.94 110.17,-100.49"/>
<polygon fill="#63b8ff" stroke="#63b8ff" points="209.61,-135.41 220.2,-135.07 211.7,-128.73 209.61,-135.41"/>
</a>
</g>
</g>
<!-- Node5 -->
<g id="Node000005" class="node">
<title>Node5</title>
<g id="a_Node000005"><a xlink:href="driver__ssd1306__basic_8h.html" target="_top" xlink:title="driver ssd1306 basic header file">
<polygon fill="white" stroke="#666666" points="261.75,-100 140,-100 140,-68 261.75,-68 261.75,-100"/>
<text xml:space="preserve" text-anchor="start" x="148" y="-86.5" font-family="Helvetica,sans-Serif" font-size="10.00">example/driver_ssd1306</text>
<text xml:space="preserve" text-anchor="middle" x="200.88" y="-74.5" font-family="Helvetica,sans-Serif" font-size="10.00">_basic.h</text>
</a>
</g>
</g>
<!-- Node2&#45;&gt;Node5 -->
<g id="edge4_Node000002_Node000005" class="edge">
<title>Node2&#45;&gt;Node5</title>
<g id="a_edge4_Node000002_Node000005"><a xlink:title=" ">
<path fill="none" stroke="#63b8ff" d="M246.47,-127.99C236.72,-118.79 225.75,-108.46 217.02,-100.22"/>
<polygon fill="#63b8ff" stroke="#63b8ff" points="243.86,-130.34 253.54,-134.65 248.66,-125.25 243.86,-130.34"/>
</a>
</g>
</g>
<!-- Node7 -->
<g id="Node000007" class="node">
<title>Node7</title>
<g id="a_Node000007"><a xlink:href="driver__ssd1306__interface__template_8c.html" target="_top" xlink:title="driver ssd1306 interface template source file">
<polygon fill="white" stroke="#666666" points="402.12,-100 279.62,-100 279.62,-68 402.12,-68 402.12,-100"/>
<text xml:space="preserve" text-anchor="start" x="287.62" y="-86.5" font-family="Helvetica,sans-Serif" font-size="10.00">interface/driver_ssd1306</text>
<text xml:space="preserve" text-anchor="middle" x="340.88" y="-74.5" font-family="Helvetica,sans-Serif" font-size="10.00">_interface_template.c</text>
</a>
</g>
</g>
<!-- Node2&#45;&gt;Node7 -->
<g id="edge6_Node000002_Node000007" class="edge">
<title>Node2&#45;&gt;Node7</title>
<g id="a_edge6_Node000002_Node000007"><a xlink:title=" ">
<path fill="none" stroke="#63b8ff" d="M295.28,-127.99C305.03,-118.79 316,-108.46 324.73,-100.22"/>
<polygon fill="#63b8ff" stroke="#63b8ff" points="293.09,-125.25 288.21,-134.65 297.89,-130.34 293.09,-125.25"/>
</a>
</g>
</g>
<!-- Node8 -->
<g id="Node000008" class="node">
<title>Node8</title>
<g id="a_Node000008"><a xlink:href="driver__ssd1306__display__test_8h.html" target="_top" xlink:title="driver ssd1306 display test header file">
<polygon fill="white" stroke="#666666" points="521.62,-100 420.12,-100 420.12,-68 521.62,-68 521.62,-100"/>
<text xml:space="preserve" text-anchor="start" x="428.12" y="-86.5" font-family="Helvetica,sans-Serif" font-size="10.00">test/driver_ssd1306</text>
<text xml:space="preserve" text-anchor="middle" x="470.88" y="-74.5" font-family="Helvetica,sans-Serif" font-size="10.00">_display_test.h</text>
</a>
</g>
</g>
<!-- Node2&#45;&gt;Node8 -->
<g id="edge7_Node000002_Node000008" class="edge">
<title>Node2&#45;&gt;Node8</title>
<g id="a_edge7_Node000002_Node000008"><a xlink:title=" ">
<path fill="none" stroke="#63b8ff" d="M328.6,-131.95C358.86,-121.97 395.44,-109.89 423.93,-100.49"/>
<polygon fill="#63b8ff" stroke="#63b8ff" points="327.6,-128.59 319.2,-135.05 329.8,-135.24 327.6,-128.59"/>
</a>
</g>
</g>
<!-- Node4 -->
<g id="Node000004" class="node">
<title>Node4</title>
<g id="a_Node000004"><a xlink:href="driver__ssd1306__advance_8c.html" target="_top" xlink:title="driver ssd1306 advance source file">
<polygon fill="white" stroke="#666666" points="121.75,-32 0,-32 0,0 121.75,0 121.75,-32"/>
<text xml:space="preserve" text-anchor="start" x="8" y="-18.5" font-family="Helvetica,sans-Serif" font-size="10.00">example/driver_ssd1306</text>
<text xml:space="preserve" text-anchor="middle" x="60.88" y="-6.5" font-family="Helvetica,sans-Serif" font-size="10.00">_advance.c</text>
</a>
</g>
</g>
<!-- Node3&#45;&gt;Node4 -->
<g id="edge3_Node000003_Node000004" class="edge">
<title>Node3&#45;&gt;Node4</title>
<g id="a_edge3_Node000003_Node000004"><a xlink:title=" ">
<path fill="none" stroke="#63b8ff" d="M60.88,-56.31C60.88,-48.12 60.88,-39.38 60.88,-32.22"/>
<polygon fill="#63b8ff" stroke="#63b8ff" points="57.38,-56.18 60.88,-66.18 64.38,-56.18 57.38,-56.18"/>
</a>
</g>
</g>
<!-- Node6 -->
<g id="Node000006" class="node">
<title>Node6</title>
<g id="a_Node000006"><a xlink:href="driver__ssd1306__basic_8c.html" target="_top" xlink:title="driver ssd1306 basic source file">
<polygon fill="white" stroke="#666666" points="261.75,-32 140,-32 140,0 261.75,0 261.75,-32"/>
<text xml:space="preserve" text-anchor="start" x="148" y="-18.5" font-family="Helvetica,sans-Serif" font-size="10.00">example/driver_ssd1306</text>
<text xml:space="preserve" text-anchor="middle" x="200.88" y="-6.5" font-family="Helvetica,sans-Serif" font-size="10.00">_basic.c</text>
</a>
</g>
</g>
<!-- Node5&#45;&gt;Node6 -->
<g id="edge5_Node000005_Node000006" class="edge">
<title>Node5&#45;&gt;Node6</title>
<g id="a_edge5_Node000005_Node000006"><a xlink:title=" ">
<path fill="none" stroke="#63b8ff" d="M200.88,-56.31C200.88,-48.12 200.88,-39.38 200.88,-32.22"/>
<polygon fill="#63b8ff" stroke="#63b8ff" points="197.38,-56.18 200.88,-66.18 204.38,-56.18 197.38,-56.18"/>
</a>
</g>
</g>
<!-- Node9 -->
<g id="Node000009" class="node">
<title>Node9</title>
<g id="a_Node000009"><a xlink:href="driver__ssd1306__display__test_8c.html" target="_top" xlink:title="driver ssd1306 display test source file">
<polygon fill="white" stroke="#666666" points="521.62,-32 420.12,-32 420.12,0 521.62,0 521.62,-32"/>
<text xml:space="preserve" text-anchor="start" x="428.12" y="-18.5" font-family="Helvetica,sans-Serif" font-size="10.00">test/driver_ssd1306</text>
<text xml:space="preserve" text-anchor="middle" x="470.88" y="-6.5" font-family="Helvetica,sans-Serif" font-size="10.00">_display_test.c</text>
</a>
</g>
</g>
<!-- Node8&#45;&gt;Node9 -->
<g id="edge8_Node000008_Node000009" class="edge">
<title>Node8&#45;&gt;Node9</title>
<g id="a_edge8_Node000008_Node000009"><a xlink:title=" ">
<path fill="none" stroke="#63b8ff" d="M470.88,-56.31C470.88,-48.12 470.88,-39.38 470.88,-32.22"/>
<polygon fill="#63b8ff" stroke="#63b8ff" points="467.38,-56.18 470.88,-66.18 474.38,-56.18 467.38,-56.18"/>
</a>
</g>
</g>
</g>
</svg>
