<?xml version="1.0" encoding="UTF-8" standalone="no"?>
<!DOCTYPE svg PUBLIC "-//W3C//DTD SVG 1.1//EN"
 "http://www.w3.org/Graphics/SVG/1.1/DTD/svg11.dtd">
<!-- Generated by graphviz version 13.1.0 (20250701.0955)
 -->
<!-- Title: src/driver_ssd1306.c Pages: 1 -->
<svg width="228pt" height="140pt"
 viewBox="0.00 0.00 228.00 140.00" xmlns="http://www.w3.org/2000/svg" xmlns:xlink="http://www.w3.org/1999/xlink">
<g id="graph0" class="graph" transform="scale(1 1) rotate(0) translate(4 136)">
<title>src/driver_ssd1306.c</title>
<!-- Node1 -->
<g id="Node000001" class="node">
<title>Node1</title>
<g id="a_Node000001"><a xlink:title="driver ssd1306 source file">
<polygon fill="#999999" stroke="#666666" points="157.5,-132 50.75,-132 50.75,-112 157.5,-112 157.5,-132"/>
<text xml:space="preserve" text-anchor="middle" x="104.12" y="-118.5" font-family="Helvetica,sans-Serif" font-size="10.00">src/driver_ssd1306.c</text>
</a>
</g>
</g>
<!-- Node2 -->
<g id="Node000002" class="node">
<title>Node2</title>
<g id="a_Node000002"><a xlink:href="driver__ssd1306_8h.html" target="_top" xlink:title="driver ssd1306 header file">
<polygon fill="white" stroke="#666666" points="90.25,-76 0,-76 0,-56 90.25,-56 90.25,-76"/>
<text xml:space="preserve" text-anchor="middle" x="45.12" y="-62.5" font-family="Helvetica,sans-Serif" font-size="10.00">driver_ssd1306.h</text>
</a>
</g>
</g>
<!-- Node1&#45;&gt;Node2 -->
<g id="edge1_Node000001_Node000002" class="edge">
<title>Node1&#45;&gt;Node2</title>
<g id="a_edge1_Node000001_Node000002"><a xlink:title=" ">
<path fill="none" stroke="#63b8ff" d="M93.85,-111.59C85.56,-104.01 73.68,-93.13 63.72,-84.02"/>
<polygon fill="#63b8ff" stroke="#63b8ff" points="66.14,-81.49 56.4,-77.32 61.41,-86.65 66.14,-81.49"/>
</a>
</g>
</g>
<!-- Node6 -->
<g id="Node000006" class="node">
<title>Node6</title>
<g id="a_Node000006"><a xlink:href="driver__ssd1306__font_8h.html" target="_top" xlink:title="driver ssd1306 font header file">
<polygon fill="white" stroke="#666666" points="220.12,-76 108.12,-76 108.12,-56 220.12,-56 220.12,-76"/>
<text xml:space="preserve" text-anchor="middle" x="164.12" y="-62.5" font-family="Helvetica,sans-Serif" font-size="10.00">driver_ssd1306_font.h</text>
</a>
</g>
</g>
<!-- Node1&#45;&gt;Node6 -->
<g id="edge5_Node000001_Node000006" class="edge">
<title>Node1&#45;&gt;Node6</title>
<g id="a_edge5_Node000001_Node000006"><a xlink:title=" ">
<path fill="none" stroke="#63b8ff" d="M114.58,-111.59C123.09,-103.93 135.34,-92.91 145.52,-83.75"/>
<polygon fill="#63b8ff" stroke="#63b8ff" points="147.58,-86.6 152.67,-77.31 142.89,-81.4 147.58,-86.6"/>
</a>
</g>
</g>
<!-- Node3 -->
<g id="Node000003" class="node">
<title>Node3</title>
<g id="a_Node000003"><a xlink:title=" ">
<polygon fill="#e0e0e0" stroke="#999999" points="64.25,-20 16,-20 16,0 64.25,0 64.25,-20"/>
<text xml:space="preserve" text-anchor="middle" x="40.12" y="-6.5" font-family="Helvetica,sans-Serif" font-size="10.00">stdint.h</text>
</a>
</g>
</g>
<!-- Node2&#45;&gt;Node3 -->
<g id="edge2_Node000002_Node000003" class="edge">
<title>Node2&#45;&gt;Node3</title>
<g id="a_edge2_Node000002_Node000003"><a xlink:title=" ">
<path fill="none" stroke="#63b8ff" d="M44.25,-55.59C43.64,-49.01 42.81,-39.96 42.04,-31.73"/>
<polygon fill="#63b8ff" stroke="#63b8ff" points="45.53,-31.44 41.13,-21.81 38.56,-32.09 45.53,-31.44"/>
</a>
</g>
</g>
<!-- Node4 -->
<g id="Node000004" class="node">
<title>Node4</title>
<g id="a_Node000004"><a xlink:title=" ">
<polygon fill="#e0e0e0" stroke="#999999" points="127.75,-20 82.5,-20 82.5,0 127.75,0 127.75,-20"/>
<text xml:space="preserve" text-anchor="middle" x="105.12" y="-6.5" font-family="Helvetica,sans-Serif" font-size="10.00">stdio.h</text>
</a>
</g>
</g>
<!-- Node2&#45;&gt;Node4 -->
<g id="edge3_Node000002_Node000004" class="edge">
<title>Node2&#45;&gt;Node4</title>
<g id="a_edge3_Node000002_Node000004"><a xlink:title=" ">
<path fill="none" stroke="#63b8ff" d="M55.58,-55.59C64.09,-47.93 76.34,-36.91 86.52,-27.75"/>
<polygon fill="#63b8ff" stroke="#63b8ff" points="88.58,-30.6 93.67,-21.31 83.89,-25.4 88.58,-30.6"/>
</a>
</g>
</g>
<!-- Node5 -->
<g id="Node000005" class="node">
<title>Node5</title>
<g id="a_Node000005"><a xlink:title=" ">
<polygon fill="#e0e0e0" stroke="#999999" points="194.25,-20 146,-20 146,0 194.25,0 194.25,-20"/>
<text xml:space="preserve" text-anchor="middle" x="170.12" y="-6.5" font-family="Helvetica,sans-Serif" font-size="10.00">string.h</text>
</a>
</g>
</g>
<!-- Node2&#45;&gt;Node5 -->
<g id="edge4_Node000002_Node000005" class="edge">
<title>Node2&#45;&gt;Node5</title>
<g id="a_edge4_Node000002_Node000005"><a xlink:title=" ">
<path fill="none" stroke="#63b8ff" d="M66.9,-55.59C86.49,-47.13 115.55,-34.58 137.85,-24.94"/>
<polygon fill="#63b8ff" stroke="#63b8ff" points="139,-28.26 146.79,-21.08 136.22,-21.83 139,-28.26"/>
</a>
</g>
</g>
<!-- Node6&#45;&gt;Node3 -->
<g id="edge6_Node000006_Node000003" class="edge">
<title>Node6&#45;&gt;Node3</title>
<g id="a_edge6_Node000006_Node000003"><a xlink:title=" ">
<path fill="none" stroke="#63b8ff" d="M142.53,-55.59C123.17,-47.17 94.52,-34.69 72.44,-25.07"/>
<polygon fill="#63b8ff" stroke="#63b8ff" points="73.85,-21.87 63.28,-21.08 71.05,-28.29 73.85,-21.87"/>
</a>
</g>
</g>
<!-- Node6&#45;&gt;Node4 -->
<g id="edge7_Node000006_Node000004" class="edge">
<title>Node6&#45;&gt;Node4</title>
<g id="a_edge7_Node000006_Node000004"><a xlink:title=" ">
<path fill="none" stroke="#63b8ff" d="M153.85,-55.59C145.56,-48.01 133.68,-37.13 123.72,-28.02"/>
<polygon fill="#63b8ff" stroke="#63b8ff" points="126.14,-25.49 116.4,-21.32 121.41,-30.65 126.14,-25.49"/>
</a>
</g>
</g>
<!-- Node6&#45;&gt;Node5 -->
<g id="edge8_Node000006_Node000005" class="edge">
<title>Node6&#45;&gt;Node5</title>
<g id="a_edge8_Node000006_Node000005"><a xlink:title=" ">
<path fill="none" stroke="#63b8ff" d="M165.17,-55.59C165.9,-49.01 166.91,-39.96 167.82,-31.73"/>
<polygon fill="#63b8ff" stroke="#63b8ff" points="171.3,-32.13 168.92,-21.8 164.34,-31.35 171.3,-32.13"/>
</a>
</g>
</g>
</g>
</svg>
