<?xml version="1.0" encoding="UTF-8" standalone="no"?>
<!DOCTYPE svg PUBLIC "-//W3C//DTD SVG 1.1//EN"
 "http://www.w3.org/Graphics/SVG/1.1/DTD/svg11.dtd">
<!-- Generated by graphviz version 13.1.0 (20250701.0955)
 -->
<!-- Title: src/driver_ssd1306_font.h Pages: 1 -->
<svg width="186pt" height="96pt"
 viewBox="0.00 0.00 186.00 96.00" xmlns="http://www.w3.org/2000/svg" xmlns:xlink="http://www.w3.org/1999/xlink">
<g id="graph0" class="graph" transform="scale(1 1) rotate(0) translate(4 92)">
<title>src/driver_ssd1306_font.h</title>
<!-- Node1 -->
<g id="Node000001" class="node">
<title>Node1</title>
<g id="a_Node000001"><a xlink:title="driver ssd1306 font header file">
<polygon fill="#999999" stroke="#666666" points="138.38,-88 39.87,-88 39.87,-56 138.38,-56 138.38,-88"/>
<text xml:space="preserve" text-anchor="start" x="47.88" y="-74.5" font-family="Helvetica,sans-Serif" font-size="10.00">src/driver_ssd1306</text>
<text xml:space="preserve" text-anchor="middle" x="89.12" y="-62.5" font-family="Helvetica,sans-Serif" font-size="10.00">_font.h</text>
</a>
</g>
</g>
<!-- Node2 -->
<g id="Node000002" class="node">
<title>Node2</title>
<g id="a_Node000002"><a xlink:title=" ">
<polygon fill="#e0e0e0" stroke="#999999" points="48.25,-20 0,-20 0,0 48.25,0 48.25,-20"/>
<text xml:space="preserve" text-anchor="middle" x="24.12" y="-6.5" font-family="Helvetica,sans-Serif" font-size="10.00">stdint.h</text>
</a>
</g>
</g>
<!-- Node1&#45;&gt;Node2 -->
<g id="edge1_Node000001_Node000002" class="edge">
<title>Node1&#45;&gt;Node2</title>
<g id="a_edge1_Node000001_Node000002"><a xlink:title=" ">
<path fill="none" stroke="#63b8ff" d="M72.39,-55.55C63.26,-47.13 51.96,-36.69 42.58,-28.04"/>
<polygon fill="#63b8ff" stroke="#63b8ff" points="45.15,-25.65 35.43,-21.43 40.4,-30.79 45.15,-25.65"/>
</a>
</g>
</g>
<!-- Node3 -->
<g id="Node000003" class="node">
<title>Node3</title>
<g id="a_Node000003"><a xlink:title=" ">
<polygon fill="#e0e0e0" stroke="#999999" points="111.75,-20 66.5,-20 66.5,0 111.75,0 111.75,-20"/>
<text xml:space="preserve" text-anchor="middle" x="89.12" y="-6.5" font-family="Helvetica,sans-Serif" font-size="10.00">stdio.h</text>
</a>
</g>
</g>
<!-- Node1&#45;&gt;Node3 -->
<g id="edge2_Node000001_Node000003" class="edge">
<title>Node1&#45;&gt;Node3</title>
<g id="a_edge2_Node000001_Node000003"><a xlink:title=" ">
<path fill="none" stroke="#63b8ff" d="M89.12,-55.55C89.12,-48.34 89.12,-39.66 89.12,-31.88"/>
<polygon fill="#63b8ff" stroke="#63b8ff" points="92.63,-31.92 89.13,-21.92 85.63,-31.92 92.63,-31.92"/>
</a>
</g>
</g>
<!-- Node4 -->
<g id="Node000004" class="node">
<title>Node4</title>
<g id="a_Node000004"><a xlink:title=" ">
<polygon fill="#e0e0e0" stroke="#999999" points="178.25,-20 130,-20 130,0 178.25,0 178.25,-20"/>
<text xml:space="preserve" text-anchor="middle" x="154.12" y="-6.5" font-family="Helvetica,sans-Serif" font-size="10.00">string.h</text>
</a>
</g>
</g>
<!-- Node1&#45;&gt;Node4 -->
<g id="edge3_Node000001_Node000004" class="edge">
<title>Node1&#45;&gt;Node4</title>
<g id="a_edge3_Node000001_Node000004"><a xlink:title=" ">
<path fill="none" stroke="#63b8ff" d="M105.86,-55.55C114.99,-47.13 126.29,-36.69 135.67,-28.04"/>
<polygon fill="#63b8ff" stroke="#63b8ff" points="137.85,-30.79 142.82,-21.43 133.1,-25.65 137.85,-30.79"/>
</a>
</g>
</g>
</g>
</svg>
