<?xml version="1.0" encoding="UTF-8" standalone="no"?>
<!DOCTYPE svg PUBLIC "-//W3C//DTD SVG 1.1//EN"
 "http://www.w3.org/Graphics/SVG/1.1/DTD/svg11.dtd">
<!-- Generated by graphviz version 13.1.0 (20250701.0955)
 -->
<!-- Title: ssd1306_advance_rect Pages: 1 -->
<svg width="277pt" height="66pt"
 viewBox="0.00 0.00 277.00 66.00" xmlns="http://www.w3.org/2000/svg" xmlns:xlink="http://www.w3.org/1999/xlink">
<g id="graph0" class="graph" transform="scale(1 1) rotate(0) translate(4 62)">
<title>ssd1306_advance_rect</title>
<!-- Node1 -->
<g id="Node000001" class="node">
<title>Node1</title>
<g id="a_Node000001"><a xlink:title="advance example fill a rectangle">
<polygon fill="#999999" stroke="#666666" points="116.5,-39 0,-39 0,-19 116.5,-19 116.5,-39"/>
<text xml:space="preserve" text-anchor="middle" x="58.25" y="-25.5" font-family="Helvetica,sans-Serif" font-size="10.00">ssd1306_advance_rect</text>
</a>
</g>
</g>
<!-- Node2 -->
<g id="Node000002" class="node">
<title>Node2</title>
<g id="a_Node000002"><a xlink:href="group__ssd1306__base__driver.html#ga6c67db47ad6765b8faa8703d571df584" target="_top" xlink:title="fill a rectangle in the gram">
<polygon fill="white" stroke="#666666" points="269,-58 152.5,-58 152.5,-38 269,-38 269,-58"/>
<text xml:space="preserve" text-anchor="middle" x="210.75" y="-44.5" font-family="Helvetica,sans-Serif" font-size="10.00">ssd1306_gram_fill_rect</text>
</a>
</g>
</g>
<!-- Node1&#45;&gt;Node2 -->
<g id="edge1_Node000001_Node000002" class="edge">
<title>Node1&#45;&gt;Node2</title>
<g id="a_edge1_Node000001_Node000002"><a xlink:title=" ">
<path fill="none" stroke="#63b8ff" d="M116.58,-36.24C124.48,-37.24 132.67,-38.27 140.75,-39.29"/>
<polygon fill="#63b8ff" stroke="#63b8ff" points="140.22,-42.75 150.58,-40.53 141.1,-35.81 140.22,-42.75"/>
</a>
</g>
</g>
<!-- Node3 -->
<g id="Node000003" class="node">
<title>Node3</title>
<g id="a_Node000003"><a xlink:href="group__ssd1306__base__driver.html#gad13acd1205c86a2c63ac8b22df33dba1" target="_top" xlink:title="update the gram data">
<polygon fill="white" stroke="#666666" points="267.88,-20 153.62,-20 153.62,0 267.88,0 267.88,-20"/>
<text xml:space="preserve" text-anchor="middle" x="210.75" y="-6.5" font-family="Helvetica,sans-Serif" font-size="10.00">ssd1306_gram_update</text>
</a>
</g>
</g>
<!-- Node1&#45;&gt;Node3 -->
<g id="edge2_Node000001_Node000003" class="edge">
<title>Node1&#45;&gt;Node3</title>
<g id="a_edge2_Node000001_Node000003"><a xlink:title=" ">
<path fill="none" stroke="#63b8ff" d="M116.58,-21.76C125.01,-20.7 133.76,-19.59 142.37,-18.51"/>
<polygon fill="#63b8ff" stroke="#63b8ff" points="142.59,-22.01 152.08,-17.28 141.72,-15.06 142.59,-22.01"/>
</a>
</g>
</g>
</g>
</svg>
