<?xml version="1.0" encoding="UTF-8" standalone="no"?>
<!DOCTYPE svg PUBLIC "-//W3C//DTD SVG 1.1//EN"
 "http://www.w3.org/Graphics/SVG/1.1/DTD/svg11.dtd">
<!-- Generated by graphviz version 13.1.0 (20250701.0955)
 -->
<!-- Title: ssd1306_basic_init Pages: 1 -->
<svg width="306pt" height="1860pt"
 viewBox="0.00 0.00 306.00 1860.00" xmlns="http://www.w3.org/2000/svg" xmlns:xlink="http://www.w3.org/1999/xlink">
<g id="graph0" class="graph" transform="scale(1 1) rotate(0) translate(4 1856)">
<title>ssd1306_basic_init</title>
<!-- Node1 -->
<g id="Node000001" class="node">
<title>Node1</title>
<g id="a_Node000001"><a xlink:title="basic example init">
<polygon fill="#999999" stroke="#666666" points="99.25,-942 0,-942 0,-922 99.25,-922 99.25,-942"/>
<text xml:space="preserve" text-anchor="middle" x="49.62" y="-928.5" font-family="Helvetica,sans-Serif" font-size="10.00">ssd1306_basic_init</text>
</a>
</g>
</g>
<!-- Node2 -->
<g id="Node000002" class="node">
<title>Node2</title>
<g id="a_Node000002"><a xlink:href="group__ssd1306__base__driver.html#gabdb73f24b43dcd93775ea24702b938d4" target="_top" xlink:title="clear the screen">
<polygon fill="white" stroke="#666666" points="256.25,-1852 177.25,-1852 177.25,-1832 256.25,-1832 256.25,-1852"/>
<text xml:space="preserve" text-anchor="middle" x="216.75" y="-1838.5" font-family="Helvetica,sans-Serif" font-size="10.00">ssd1306_clear</text>
</a>
</g>
</g>
<!-- Node1&#45;&gt;Node2 -->
<g id="edge1_Node000001_Node000002" class="edge">
<title>Node1&#45;&gt;Node2</title>
<g id="a_edge1_Node000001_Node000002"><a xlink:title=" ">
<path fill="none" stroke="#63b8ff" d="M50.89,-942.34C53.39,-1037.11 74.25,-1753.01 135.25,-1823 143.04,-1831.94 154.19,-1837.09 165.71,-1839.97"/>
<polygon fill="#63b8ff" stroke="#63b8ff" points="164.81,-1843.36 175.29,-1841.79 166.12,-1836.48 164.81,-1843.36"/>
</a>
</g>
</g>
<!-- Node3 -->
<g id="Node000003" class="node">
<title>Node3</title>
<g id="a_Node000003"><a xlink:href="group__ssd1306__base__driver.html#ga99842fb1e272b67cfc055d373f89749b" target="_top" xlink:title="deactivate the scroll">
<polygon fill="white" stroke="#666666" points="268.25,-1814 165.25,-1814 165.25,-1782 268.25,-1782 268.25,-1814"/>
<text xml:space="preserve" text-anchor="start" x="173.25" y="-1800.5" font-family="Helvetica,sans-Serif" font-size="10.00">ssd1306_deactivate</text>
<text xml:space="preserve" text-anchor="middle" x="216.75" y="-1788.5" font-family="Helvetica,sans-Serif" font-size="10.00">_scroll</text>
</a>
</g>
</g>
<!-- Node1&#45;&gt;Node3 -->
<g id="edge2_Node000001_Node000003" class="edge">
<title>Node1&#45;&gt;Node3</title>
<g id="a_edge2_Node000001_Node000003"><a xlink:title=" ">
<path fill="none" stroke="#63b8ff" d="M50.98,-942.3C54.23,-1033.79 79.89,-1705.24 135.25,-1773 140.41,-1779.31 147.13,-1784.06 154.49,-1787.63"/>
<polygon fill="#63b8ff" stroke="#63b8ff" points="152.85,-1790.74 163.44,-1791.23 155.47,-1784.25 152.85,-1790.74"/>
</a>
</g>
</g>
<!-- Node4 -->
<g id="Node000004" class="node">
<title>Node4</title>
<g id="a_Node000004"><a xlink:href="group__ssd1306__base__driver.html#gaa6ab33cbbce1ee0b495abf2fe5b208f0" target="_top" xlink:title="close the chip">
<polygon fill="white" stroke="#666666" points="257.38,-1764 176.12,-1764 176.12,-1744 257.38,-1744 257.38,-1764"/>
<text xml:space="preserve" text-anchor="middle" x="216.75" y="-1750.5" font-family="Helvetica,sans-Serif" font-size="10.00">ssd1306_deinit</text>
</a>
</g>
</g>
<!-- Node1&#45;&gt;Node4 -->
<g id="edge3_Node000001_Node000004" class="edge">
<title>Node1&#45;&gt;Node4</title>
<g id="a_edge3_Node000001_Node000004"><a xlink:title=" ">
<path fill="none" stroke="#63b8ff" d="M51,-942.42C54.36,-1032.15 80.13,-1672.4 135.25,-1735 142.87,-1743.65 153.62,-1748.74 164.79,-1751.66"/>
<polygon fill="#63b8ff" stroke="#63b8ff" points="164.03,-1755.08 174.52,-1753.6 165.4,-1748.21 164.03,-1755.08"/>
</a>
</g>
</g>
<!-- Node5 -->
<g id="Node000005" class="node">
<title>Node5</title>
<g id="a_Node000005"><a xlink:href="group__ssd1306__base__driver.html#gaff19089a6c734bd8cf06d5bfc610f0e4" target="_top" xlink:title="initialize the chip">
<polygon fill="white" stroke="#666666" points="252.12,-1726 181.38,-1726 181.38,-1706 252.12,-1706 252.12,-1726"/>
<text xml:space="preserve" text-anchor="middle" x="216.75" y="-1712.5" font-family="Helvetica,sans-Serif" font-size="10.00">ssd1306_init</text>
</a>
</g>
</g>
<!-- Node1&#45;&gt;Node5 -->
<g id="edge4_Node000001_Node000005" class="edge">
<title>Node1&#45;&gt;Node5</title>
<g id="a_edge4_Node000001_Node000005"><a xlink:title=" ">
<path fill="none" stroke="#63b8ff" d="M51.06,-942.48C54.81,-1029.99 82.66,-1637.59 135.25,-1697 144.01,-1706.9 156.88,-1712.13 169.76,-1714.78"/>
<polygon fill="#63b8ff" stroke="#63b8ff" points="169.08,-1718.22 179.5,-1716.26 170.14,-1711.3 169.08,-1718.22"/>
</a>
</g>
</g>
<!-- Node6 -->
<g id="Node000006" class="node">
<title>Node6</title>
<g id="a_Node000006"><a xlink:href="group__ssd1306__interface__driver.html#ga8bab7b11c6b9ed5a7a58e14911b0e6a2" target="_top" xlink:title="interface print format data">
<polygon fill="white" stroke="#666666" points="280.25,-1688 153.25,-1688 153.25,-1656 280.25,-1656 280.25,-1688"/>
<text xml:space="preserve" text-anchor="start" x="161.25" y="-1674.5" font-family="Helvetica,sans-Serif" font-size="10.00">ssd1306_interface_debug</text>
<text xml:space="preserve" text-anchor="middle" x="216.75" y="-1662.5" font-family="Helvetica,sans-Serif" font-size="10.00">_print</text>
</a>
</g>
</g>
<!-- Node1&#45;&gt;Node6 -->
<g id="edge5_Node000001_Node000006" class="edge">
<title>Node1&#45;&gt;Node6</title>
<g id="a_edge5_Node000001_Node000006"><a xlink:title=" ">
<path fill="none" stroke="#63b8ff" d="M51.17,-942.29C55.69,-1025.74 87.89,-1590.06 135.25,-1647 137.68,-1649.93 140.45,-1652.51 143.46,-1654.81"/>
<polygon fill="#63b8ff" stroke="#63b8ff" points="141.51,-1657.71 151.85,-1660.02 145.21,-1651.77 141.51,-1657.71"/>
</a>
</g>
</g>
<!-- Node7 -->
<g id="Node000007" class="node">
<title>Node7</title>
<g id="a_Node000007"><a xlink:href="group__ssd1306__interface__driver.html#gaf6aebd2ef1dcc25a8a046ed67a989495" target="_top" xlink:title="interface delay ms">
<polygon fill="white" stroke="#666666" points="288.12,-1638 145.38,-1638 145.38,-1618 288.12,-1618 288.12,-1638"/>
<text xml:space="preserve" text-anchor="middle" x="216.75" y="-1624.5" font-family="Helvetica,sans-Serif" font-size="10.00">ssd1306_interface_delay_ms</text>
</a>
</g>
</g>
<!-- Node1&#45;&gt;Node7 -->
<g id="edge6_Node000001_Node000007" class="edge">
<title>Node1&#45;&gt;Node7</title>
<g id="a_edge6_Node000001_Node000007"><a xlink:title=" ">
<path fill="none" stroke="#63b8ff" d="M51.21,-942.28C55.9,-1023.27 88.46,-1556.89 135.25,-1609 135.73,-1609.53 136.22,-1610.05 136.72,-1610.56"/>
<polygon fill="#63b8ff" stroke="#63b8ff" points="134.55,-1613.3 144.57,-1616.73 138.87,-1607.8 134.55,-1613.3"/>
</a>
</g>
</g>
<!-- Node8 -->
<g id="Node000008" class="node">
<title>Node8</title>
<g id="a_Node000008"><a xlink:href="group__ssd1306__interface__driver.html#gaae3e98f3b42bffad41438de20585664c" target="_top" xlink:title="interface iic bus deinit">
<polygon fill="white" stroke="#666666" points="272,-1600 161.5,-1600 161.5,-1568 272,-1568 272,-1600"/>
<text xml:space="preserve" text-anchor="start" x="169.5" y="-1586.5" font-family="Helvetica,sans-Serif" font-size="10.00">ssd1306_interface_iic</text>
<text xml:space="preserve" text-anchor="middle" x="216.75" y="-1574.5" font-family="Helvetica,sans-Serif" font-size="10.00">_deinit</text>
</a>
</g>
</g>
<!-- Node1&#45;&gt;Node8 -->
<g id="edge7_Node000001_Node000008" class="edge">
<title>Node1&#45;&gt;Node8</title>
<g id="a_edge7_Node000001_Node000008"><a xlink:title=" ">
<path fill="none" stroke="#63b8ff" d="M50.56,-942.44C50.27,-1016.38 52.09,-1460.66 135.25,-1559 139.61,-1564.15 145.01,-1568.26 150.94,-1571.54"/>
<polygon fill="#63b8ff" stroke="#63b8ff" points="149.39,-1574.68 159.94,-1575.66 152.31,-1568.31 149.39,-1574.68"/>
</a>
</g>
</g>
<!-- Node9 -->
<g id="Node000009" class="node">
<title>Node9</title>
<g id="a_Node000009"><a xlink:href="group__ssd1306__interface__driver.html#ga33673b85b80570b0c2b157857dc527ff" target="_top" xlink:title="interface iic bus init">
<polygon fill="white" stroke="#666666" points="281,-1550 152.5,-1550 152.5,-1530 281,-1530 281,-1550"/>
<text xml:space="preserve" text-anchor="middle" x="216.75" y="-1536.5" font-family="Helvetica,sans-Serif" font-size="10.00">ssd1306_interface_iic_init</text>
</a>
</g>
</g>
<!-- Node1&#45;&gt;Node9 -->
<g id="edge8_Node000001_Node000009" class="edge">
<title>Node1&#45;&gt;Node9</title>
<g id="a_edge8_Node000001_Node000009"><a xlink:title=" ">
<path fill="none" stroke="#63b8ff" d="M50.59,-942.33C50.52,-1013.56 53.67,-1431.81 135.25,-1521 137.4,-1523.35 139.79,-1525.44 142.35,-1527.29"/>
<polygon fill="#63b8ff" stroke="#63b8ff" points="140.56,-1530.3 150.97,-1532.25 144.05,-1524.23 140.56,-1530.3"/>
</a>
</g>
</g>
<!-- Node10 -->
<g id="Node000010" class="node">
<title>Node10</title>
<g id="a_Node000010"><a xlink:href="group__ssd1306__interface__driver.html#ga6ccc0b463a08718eb4a9f0a5333f18a5" target="_top" xlink:title="interface iic bus write">
<polygon fill="white" stroke="#666666" points="272,-1512 161.5,-1512 161.5,-1480 272,-1480 272,-1512"/>
<text xml:space="preserve" text-anchor="start" x="169.5" y="-1498.5" font-family="Helvetica,sans-Serif" font-size="10.00">ssd1306_interface_iic</text>
<text xml:space="preserve" text-anchor="middle" x="216.75" y="-1486.5" font-family="Helvetica,sans-Serif" font-size="10.00">_write</text>
</a>
</g>
</g>
<!-- Node1&#45;&gt;Node10 -->
<g id="edge9_Node000001_Node000010" class="edge">
<title>Node1&#45;&gt;Node10</title>
<g id="a_edge9_Node000001_Node000010"><a xlink:title=" ">
<path fill="none" stroke="#63b8ff" d="M50.8,-942.25C52.18,-1009.5 63.09,-1387.51 135.25,-1471 139.6,-1476.04 144.95,-1480.07 150.8,-1483.3"/>
<polygon fill="#63b8ff" stroke="#63b8ff" points="149.11,-1486.38 159.66,-1487.39 152.04,-1480.02 149.11,-1486.38"/>
</a>
</g>
</g>
<!-- Node11 -->
<g id="Node000011" class="node">
<title>Node11</title>
<g id="a_Node000011"><a xlink:href="group__ssd1306__interface__driver.html#gaa4c65bea7a6c2fb1ad604d36c09990a6" target="_top" xlink:title="interface reset gpio deinit">
<polygon fill="white" stroke="#666666" points="278,-1462 155.5,-1462 155.5,-1430 278,-1430 278,-1462"/>
<text xml:space="preserve" text-anchor="start" x="163.5" y="-1448.5" font-family="Helvetica,sans-Serif" font-size="10.00">ssd1306_interface_reset</text>
<text xml:space="preserve" text-anchor="middle" x="216.75" y="-1436.5" font-family="Helvetica,sans-Serif" font-size="10.00">_gpio_deinit</text>
</a>
</g>
</g>
<!-- Node1&#45;&gt;Node11 -->
<g id="edge10_Node000001_Node000011" class="edge">
<title>Node1&#45;&gt;Node11</title>
<g id="a_edge10_Node000001_Node000011"><a xlink:title=" ">
<path fill="none" stroke="#63b8ff" d="M50.98,-942.11C53.38,-1005.31 69.31,-1345.9 135.25,-1421 138.21,-1424.37 141.61,-1427.29 145.31,-1429.82"/>
<polygon fill="#63b8ff" stroke="#63b8ff" points="143.28,-1432.69 153.71,-1434.59 146.74,-1426.61 143.28,-1432.69"/>
</a>
</g>
</g>
<!-- Node12 -->
<g id="Node000012" class="node">
<title>Node12</title>
<g id="a_Node000012"><a xlink:href="group__ssd1306__interface__driver.html#ga8963602e6b576a606c3e7e1e32616ded" target="_top" xlink:title="interface reset gpio init">
<polygon fill="white" stroke="#666666" points="278,-1412 155.5,-1412 155.5,-1380 278,-1380 278,-1412"/>
<text xml:space="preserve" text-anchor="start" x="163.5" y="-1398.5" font-family="Helvetica,sans-Serif" font-size="10.00">ssd1306_interface_reset</text>
<text xml:space="preserve" text-anchor="middle" x="216.75" y="-1386.5" font-family="Helvetica,sans-Serif" font-size="10.00">_gpio_init</text>
</a>
</g>
</g>
<!-- Node1&#45;&gt;Node12 -->
<g id="edge11_Node000001_Node000012" class="edge">
<title>Node1&#45;&gt;Node12</title>
<g id="a_edge11_Node000001_Node000012"><a xlink:title=" ">
<path fill="none" stroke="#63b8ff" d="M51.2,-942.22C54.76,-1001.82 75.59,-1304.34 135.25,-1371 138.24,-1374.34 141.66,-1377.24 145.38,-1379.75"/>
<polygon fill="#63b8ff" stroke="#63b8ff" points="143.38,-1382.64 153.81,-1384.5 146.82,-1376.54 143.38,-1382.64"/>
</a>
</g>
</g>
<!-- Node13 -->
<g id="Node000013" class="node">
<title>Node13</title>
<g id="a_Node000013"><a xlink:href="group__ssd1306__interface__driver.html#gaca8445896f6cb832cba4e68e3a051a1e" target="_top" xlink:title="interface reset gpio write">
<polygon fill="white" stroke="#666666" points="278,-1362 155.5,-1362 155.5,-1330 278,-1330 278,-1362"/>
<text xml:space="preserve" text-anchor="start" x="163.5" y="-1348.5" font-family="Helvetica,sans-Serif" font-size="10.00">ssd1306_interface_reset</text>
<text xml:space="preserve" text-anchor="middle" x="216.75" y="-1336.5" font-family="Helvetica,sans-Serif" font-size="10.00">_gpio_write</text>
</a>
</g>
</g>
<!-- Node1&#45;&gt;Node13 -->
<g id="edge12_Node000001_Node000013" class="edge">
<title>Node1&#45;&gt;Node13</title>
<g id="a_edge12_Node000001_Node000013"><a xlink:title=" ">
<path fill="none" stroke="#63b8ff" d="M51.5,-942.49C56.37,-998.58 81.89,-1262.79 135.25,-1321 138.28,-1324.3 141.73,-1327.17 145.47,-1329.67"/>
<polygon fill="#63b8ff" stroke="#63b8ff" points="143.5,-1332.58 153.94,-1334.39 146.91,-1326.46 143.5,-1332.58"/>
</a>
</g>
</g>
<!-- Node14 -->
<g id="Node000014" class="node">
<title>Node14</title>
<g id="a_Node000014"><a xlink:href="group__ssd1306__interface__driver.html#gac795f4d2085f4370014d921f0e237415" target="_top" xlink:title="interface command &amp;&amp; data gpio deinit">
<polygon fill="white" stroke="#666666" points="274.62,-1312 158.88,-1312 158.88,-1280 274.62,-1280 274.62,-1312"/>
<text xml:space="preserve" text-anchor="start" x="166.88" y="-1298.5" font-family="Helvetica,sans-Serif" font-size="10.00">ssd1306_interface_spi</text>
<text xml:space="preserve" text-anchor="middle" x="216.75" y="-1286.5" font-family="Helvetica,sans-Serif" font-size="10.00">_cmd_data_gpio_deinit</text>
</a>
</g>
</g>
<!-- Node1&#45;&gt;Node14 -->
<g id="edge13_Node000001_Node000014" class="edge">
<title>Node1&#45;&gt;Node14</title>
<g id="a_edge13_Node000001_Node000014"><a xlink:title=" ">
<path fill="none" stroke="#63b8ff" d="M51.86,-942.48C58.13,-994.12 88.06,-1221.07 135.25,-1271 139.17,-1275.15 143.76,-1278.61 148.74,-1281.51"/>
<polygon fill="#63b8ff" stroke="#63b8ff" points="146.81,-1284.46 157.33,-1285.73 149.89,-1278.17 146.81,-1284.46"/>
</a>
</g>
</g>
<!-- Node15 -->
<g id="Node000015" class="node">
<title>Node15</title>
<g id="a_Node000015"><a xlink:href="group__ssd1306__interface__driver.html#gacea714417628f4882e8e52a72e2667e5" target="_top" xlink:title="interface command &amp;&amp; data gpio init">
<polygon fill="white" stroke="#666666" points="273.5,-1262 160,-1262 160,-1230 273.5,-1230 273.5,-1262"/>
<text xml:space="preserve" text-anchor="start" x="168" y="-1248.5" font-family="Helvetica,sans-Serif" font-size="10.00">ssd1306_interface_spi</text>
<text xml:space="preserve" text-anchor="middle" x="216.75" y="-1236.5" font-family="Helvetica,sans-Serif" font-size="10.00">_cmd_data_gpio_init</text>
</a>
</g>
</g>
<!-- Node1&#45;&gt;Node15 -->
<g id="edge14_Node000001_Node000015" class="edge">
<title>Node1&#45;&gt;Node15</title>
<g id="a_edge14_Node000001_Node000015"><a xlink:title=" ">
<path fill="none" stroke="#63b8ff" d="M50.39,-942.39C50.04,-983.8 54.4,-1138.83 135.25,-1221 139.38,-1225.2 144.2,-1228.69 149.38,-1231.6"/>
<polygon fill="#63b8ff" stroke="#63b8ff" points="147.83,-1234.74 158.37,-1235.86 150.83,-1228.41 147.83,-1234.74"/>
</a>
</g>
</g>
<!-- Node16 -->
<g id="Node000016" class="node">
<title>Node16</title>
<g id="a_Node000016"><a xlink:href="group__ssd1306__interface__driver.html#gac88e9a3776c2da54382a3a3df0079c59" target="_top" xlink:title="interface command &amp;&amp; data gpio write">
<polygon fill="white" stroke="#666666" points="273.5,-1212 160,-1212 160,-1180 273.5,-1180 273.5,-1212"/>
<text xml:space="preserve" text-anchor="start" x="168" y="-1198.5" font-family="Helvetica,sans-Serif" font-size="10.00">ssd1306_interface_spi</text>
<text xml:space="preserve" text-anchor="middle" x="216.75" y="-1186.5" font-family="Helvetica,sans-Serif" font-size="10.00">_cmd_data_gpio_write</text>
</a>
</g>
</g>
<!-- Node1&#45;&gt;Node16 -->
<g id="edge15_Node000001_Node000016" class="edge">
<title>Node1&#45;&gt;Node16</title>
<g id="a_edge15_Node000001_Node000016"><a xlink:title=" ">
<path fill="none" stroke="#63b8ff" d="M51.12,-942.34C53.47,-979.1 66.4,-1104.8 135.25,-1171 139.43,-1175.02 144.24,-1178.39 149.39,-1181.22"/>
<polygon fill="#63b8ff" stroke="#63b8ff" points="147.72,-1184.31 158.26,-1185.38 150.7,-1177.97 147.72,-1184.31"/>
</a>
</g>
</g>
<!-- Node17 -->
<g id="Node000017" class="node">
<title>Node17</title>
<g id="a_Node000017"><a xlink:href="group__ssd1306__interface__driver.html#gabda3e56c74225501659a384e2372b2a1" target="_top" xlink:title="interface spi bus deinit">
<polygon fill="white" stroke="#666666" points="273.5,-1162 160,-1162 160,-1130 273.5,-1130 273.5,-1162"/>
<text xml:space="preserve" text-anchor="start" x="168" y="-1148.5" font-family="Helvetica,sans-Serif" font-size="10.00">ssd1306_interface_spi</text>
<text xml:space="preserve" text-anchor="middle" x="216.75" y="-1136.5" font-family="Helvetica,sans-Serif" font-size="10.00">_deinit</text>
</a>
</g>
</g>
<!-- Node1&#45;&gt;Node17 -->
<g id="edge16_Node000001_Node000017" class="edge">
<title>Node1&#45;&gt;Node17</title>
<g id="a_edge16_Node000001_Node000017"><a xlink:title=" ">
<path fill="none" stroke="#63b8ff" d="M52.21,-942.35C57.61,-974 78.22,-1070.43 135.25,-1121 139.52,-1124.79 144.36,-1128 149.49,-1130.73"/>
<polygon fill="#63b8ff" stroke="#63b8ff" points="147.73,-1133.77 158.28,-1134.76 150.65,-1127.41 147.73,-1133.77"/>
</a>
</g>
</g>
<!-- Node18 -->
<g id="Node000018" class="node">
<title>Node18</title>
<g id="a_Node000018"><a xlink:href="group__ssd1306__interface__driver.html#gabd0697f407f193f7545b4fef282633e7" target="_top" xlink:title="interface spi bus init">
<polygon fill="white" stroke="#666666" points="282.5,-1112 151,-1112 151,-1092 282.5,-1092 282.5,-1112"/>
<text xml:space="preserve" text-anchor="middle" x="216.75" y="-1098.5" font-family="Helvetica,sans-Serif" font-size="10.00">ssd1306_interface_spi_init</text>
</a>
</g>
</g>
<!-- Node1&#45;&gt;Node18 -->
<g id="edge17_Node000001_Node000018" class="edge">
<title>Node1&#45;&gt;Node18</title>
<g id="a_edge17_Node000001_Node000018"><a xlink:title=" ">
<path fill="none" stroke="#63b8ff" d="M53.28,-942.36C60.9,-969.94 85.57,-1045.56 135.25,-1083 137.01,-1084.33 138.85,-1085.57 140.76,-1086.72"/>
<polygon fill="#63b8ff" stroke="#63b8ff" points="138.88,-1089.69 149.38,-1091.12 142.06,-1083.46 138.88,-1089.69"/>
</a>
</g>
</g>
<!-- Node19 -->
<g id="Node000019" class="node">
<title>Node19</title>
<g id="a_Node000019"><a xlink:href="group__ssd1306__interface__driver.html#ga9066ac254075f02ad00bdfa2175eefbc" target="_top" xlink:title="interface spi bus write">
<polygon fill="white" stroke="#666666" points="273.5,-1074 160,-1074 160,-1042 273.5,-1042 273.5,-1074"/>
<text xml:space="preserve" text-anchor="start" x="168" y="-1060.5" font-family="Helvetica,sans-Serif" font-size="10.00">ssd1306_interface_spi</text>
<text xml:space="preserve" text-anchor="middle" x="216.75" y="-1048.5" font-family="Helvetica,sans-Serif" font-size="10.00">_write_cmd</text>
</a>
</g>
</g>
<!-- Node1&#45;&gt;Node19 -->
<g id="edge18_Node000001_Node000019" class="edge">
<title>Node1&#45;&gt;Node19</title>
<g id="a_edge18_Node000001_Node000019"><a xlink:title=" ">
<path fill="none" stroke="#63b8ff" d="M56.42,-942.26C68.45,-962.62 98.11,-1008.28 135.25,-1033 139.66,-1035.94 144.44,-1038.54 149.38,-1040.85"/>
<polygon fill="#63b8ff" stroke="#63b8ff" points="147.75,-1043.96 158.32,-1044.61 150.46,-1037.51 147.75,-1043.96"/>
</a>
</g>
</g>
<!-- Node20 -->
<g id="Node000020" class="node">
<title>Node20</title>
<g id="a_Node000020"><a xlink:href="group__ssd1306__base__driver.html#ga3c5208ca2b8fce8fc7bde1fc4bfa9d05" target="_top" xlink:title="set the chip iic address">
<polygon fill="white" stroke="#666666" points="273.5,-1024 160,-1024 160,-1004 273.5,-1004 273.5,-1024"/>
<text xml:space="preserve" text-anchor="middle" x="216.75" y="-1010.5" font-family="Helvetica,sans-Serif" font-size="10.00">ssd1306_set_addr_pin</text>
</a>
</g>
</g>
<!-- Node1&#45;&gt;Node20 -->
<g id="edge19_Node000001_Node000020" class="edge">
<title>Node1&#45;&gt;Node20</title>
<g id="a_edge19_Node000001_Node000020"><a xlink:title=" ">
<path fill="none" stroke="#63b8ff" d="M61.43,-942.39C76.66,-956.44 105.86,-981.31 135.25,-995 139.57,-997.01 144.12,-998.82 148.78,-1000.45"/>
<polygon fill="#63b8ff" stroke="#63b8ff" points="147.72,-1003.78 158.31,-1003.46 149.83,-997.11 147.72,-1003.78"/>
</a>
</g>
</g>
<!-- Node21 -->
<g id="Node000021" class="node">
<title>Node21</title>
<g id="a_Node000021"><a xlink:href="group__ssd1306__base__driver.html#ga6dd49e731a0256e5556c11992bf065ff" target="_top" xlink:title="enable or disable the charge pump">
<polygon fill="white" stroke="#666666" points="284.38,-986 149.12,-986 149.12,-966 284.38,-966 284.38,-986"/>
<text xml:space="preserve" text-anchor="middle" x="216.75" y="-972.5" font-family="Helvetica,sans-Serif" font-size="10.00">ssd1306_set_charge_pump</text>
</a>
</g>
</g>
<!-- Node1&#45;&gt;Node21 -->
<g id="edge20_Node000001_Node000021" class="edge">
<title>Node1&#45;&gt;Node21</title>
<g id="a_edge20_Node000001_Node000021"><a xlink:title=" ">
<path fill="none" stroke="#63b8ff" d="M84.27,-942.41C99.74,-947.07 118.37,-952.52 135.25,-957 142.8,-959 150.77,-961.01 158.65,-962.94"/>
<polygon fill="#63b8ff" stroke="#63b8ff" points="157.65,-966.3 168.19,-965.23 159.29,-959.49 157.65,-966.3"/>
</a>
</g>
</g>
<!-- Node22 -->
<g id="Node000022" class="node">
<title>Node22</title>
<g id="a_Node000022"><a xlink:href="group__ssd1306__base__driver.html#gace80f71defecb1723ae1d5c53ac7c7c5" target="_top" xlink:title="set the column address range">
<polygon fill="white" stroke="#666666" points="270.88,-948 162.62,-948 162.62,-916 270.88,-916 270.88,-948"/>
<text xml:space="preserve" text-anchor="start" x="170.62" y="-934.5" font-family="Helvetica,sans-Serif" font-size="10.00">ssd1306_set_column</text>
<text xml:space="preserve" text-anchor="middle" x="216.75" y="-922.5" font-family="Helvetica,sans-Serif" font-size="10.00">_address_range</text>
</a>
</g>
</g>
<!-- Node1&#45;&gt;Node22 -->
<g id="edge21_Node000001_Node000022" class="edge">
<title>Node1&#45;&gt;Node22</title>
<g id="a_edge21_Node000001_Node000022"><a xlink:title=" ">
<path fill="none" stroke="#63b8ff" d="M99.72,-932C115.86,-932 134.06,-932 151.18,-932"/>
<polygon fill="#63b8ff" stroke="#63b8ff" points="150.72,-935.5 160.72,-932 150.72,-928.5 150.72,-935.5"/>
</a>
</g>
</g>
<!-- Node23 -->
<g id="Node000023" class="node">
<title>Node23</title>
<g id="a_Node000023"><a xlink:href="group__ssd1306__base__driver.html#gaaf3f80e42b6b20ef6794aae8d404b79c" target="_top" xlink:title="set the hardware com pins">
<polygon fill="white" stroke="#666666" points="276.12,-898 157.38,-898 157.38,-866 276.12,-866 276.12,-898"/>
<text xml:space="preserve" text-anchor="start" x="165.38" y="-884.5" font-family="Helvetica,sans-Serif" font-size="10.00">ssd1306_set_com_pins</text>
<text xml:space="preserve" text-anchor="middle" x="216.75" y="-872.5" font-family="Helvetica,sans-Serif" font-size="10.00">_hardware_conf</text>
</a>
</g>
</g>
<!-- Node1&#45;&gt;Node23 -->
<g id="edge22_Node000001_Node000023" class="edge">
<title>Node1&#45;&gt;Node23</title>
<g id="a_edge22_Node000001_Node000023"><a xlink:title=" ">
<path fill="none" stroke="#63b8ff" d="M85.24,-921.52C104.18,-915.78 128.26,-908.49 150.57,-901.74"/>
<polygon fill="#63b8ff" stroke="#63b8ff" points="151.35,-905.16 159.91,-898.91 149.32,-898.46 151.35,-905.16"/>
</a>
</g>
</g>
<!-- Node24 -->
<g id="Node000024" class="node">
<title>Node24</title>
<g id="a_Node000024"><a xlink:href="group__ssd1306__base__driver.html#ga04af4a1d48cc69445e34ca598c34b239" target="_top" xlink:title="set the display contrast">
<polygon fill="white" stroke="#666666" points="272.75,-848 160.75,-848 160.75,-828 272.75,-828 272.75,-848"/>
<text xml:space="preserve" text-anchor="middle" x="216.75" y="-834.5" font-family="Helvetica,sans-Serif" font-size="10.00">ssd1306_set_contrast</text>
</a>
</g>
</g>
<!-- Node1&#45;&gt;Node24 -->
<g id="edge23_Node000001_Node000024" class="edge">
<title>Node1&#45;&gt;Node24</title>
<g id="a_edge23_Node000001_Node000024"><a xlink:title=" ">
<path fill="none" stroke="#63b8ff" d="M59.1,-921.75C73.17,-905.44 103.01,-873.72 135.25,-857 139.75,-854.67 144.53,-852.62 149.44,-850.82"/>
<polygon fill="#63b8ff" stroke="#63b8ff" points="150.46,-854.16 158.88,-847.73 148.29,-847.51 150.46,-854.16"/>
</a>
</g>
</g>
<!-- Node25 -->
<g id="Node000025" class="node">
<title>Node25</title>
<g id="a_Node000025"><a xlink:href="group__ssd1306__base__driver.html#gac47023d3af6a0c7ebe9b879b8968e727" target="_top" xlink:title="set the deselect level">
<polygon fill="white" stroke="#666666" points="273.5,-810 160,-810 160,-778 273.5,-778 273.5,-810"/>
<text xml:space="preserve" text-anchor="start" x="168" y="-796.5" font-family="Helvetica,sans-Serif" font-size="10.00">ssd1306_set_deselect</text>
<text xml:space="preserve" text-anchor="middle" x="216.75" y="-784.5" font-family="Helvetica,sans-Serif" font-size="10.00">_level</text>
</a>
</g>
</g>
<!-- Node1&#45;&gt;Node25 -->
<g id="edge24_Node000001_Node000025" class="edge">
<title>Node1&#45;&gt;Node25</title>
<g id="a_edge24_Node000001_Node000025"><a xlink:title=" ">
<path fill="none" stroke="#63b8ff" d="M55.58,-921.54C66.66,-899.28 95.6,-846.98 135.25,-819 139.65,-815.89 144.45,-813.16 149.44,-810.77"/>
<polygon fill="#63b8ff" stroke="#63b8ff" points="150.69,-814.04 158.51,-806.89 147.94,-807.6 150.69,-814.04"/>
</a>
</g>
</g>
<!-- Node26 -->
<g id="Node000026" class="node">
<title>Node26</title>
<g id="a_Node000026"><a xlink:href="group__ssd1306__base__driver.html#ga8a9ee843e339805b16c571c8ac94f9ec" target="_top" xlink:title="enable or disable the display">
<polygon fill="white" stroke="#666666" points="270.5,-760 163,-760 163,-740 270.5,-740 270.5,-760"/>
<text xml:space="preserve" text-anchor="middle" x="216.75" y="-746.5" font-family="Helvetica,sans-Serif" font-size="10.00">ssd1306_set_display</text>
</a>
</g>
</g>
<!-- Node1&#45;&gt;Node26 -->
<g id="edge25_Node000001_Node000026" class="edge">
<title>Node1&#45;&gt;Node26</title>
<g id="a_edge25_Node000001_Node000026"><a xlink:title=" ">
<path fill="none" stroke="#63b8ff" d="M52.82,-921.68C59.54,-892.68 82.68,-809.96 135.25,-769 140.21,-765.14 145.82,-762.04 151.72,-759.56"/>
<polygon fill="#63b8ff" stroke="#63b8ff" points="152.88,-762.86 161.15,-756.24 150.55,-756.26 152.88,-762.86"/>
</a>
</g>
</g>
<!-- Node27 -->
<g id="Node000027" class="node">
<title>Node27</title>
<g id="a_Node000027"><a xlink:href="group__ssd1306__base__driver.html#gaa588c8dc16bd6bfc84fa242910cf7252" target="_top" xlink:title="set the display clock">
<polygon fill="white" stroke="#666666" points="270.5,-722 163,-722 163,-690 270.5,-690 270.5,-722"/>
<text xml:space="preserve" text-anchor="start" x="171" y="-708.5" font-family="Helvetica,sans-Serif" font-size="10.00">ssd1306_set_display</text>
<text xml:space="preserve" text-anchor="middle" x="216.75" y="-696.5" font-family="Helvetica,sans-Serif" font-size="10.00">_clock</text>
</a>
</g>
</g>
<!-- Node1&#45;&gt;Node27 -->
<g id="edge26_Node000001_Node000027" class="edge">
<title>Node1&#45;&gt;Node27</title>
<g id="a_edge26_Node000001_Node000027"><a xlink:title=" ">
<path fill="none" stroke="#63b8ff" d="M51.86,-921.94C56.42,-889.32 75.24,-785.44 135.25,-731 140.37,-726.35 146.34,-722.57 152.68,-719.49"/>
<polygon fill="#63b8ff" stroke="#63b8ff" points="153.61,-722.9 161.47,-715.8 150.9,-716.45 153.61,-722.9"/>
</a>
</g>
</g>
<!-- Node28 -->
<g id="Node000028" class="node">
<title>Node28</title>
<g id="a_Node000028"><a xlink:href="group__ssd1306__base__driver.html#ga8231cf2d7d5e244df0a64c65d5db9aca" target="_top" xlink:title="set the display mode">
<polygon fill="white" stroke="#666666" points="285.12,-672 148.38,-672 148.38,-652 285.12,-652 285.12,-672"/>
<text xml:space="preserve" text-anchor="middle" x="216.75" y="-658.5" font-family="Helvetica,sans-Serif" font-size="10.00">ssd1306_set_display_mode</text>
</a>
</g>
</g>
<!-- Node1&#45;&gt;Node28 -->
<g id="edge27_Node000001_Node000028" class="edge">
<title>Node1&#45;&gt;Node28</title>
<g id="a_edge27_Node000001_Node000028"><a xlink:title=" ">
<path fill="none" stroke="#63b8ff" d="M50.77,-921.51C51.88,-883.05 61.13,-748.5 135.25,-681 136.32,-680.02 137.44,-679.09 138.59,-678.2"/>
<polygon fill="#63b8ff" stroke="#63b8ff" points="140.16,-681.35 146.76,-673.07 136.43,-675.43 140.16,-681.35"/>
</a>
</g>
</g>
<!-- Node29 -->
<g id="Node000029" class="node">
<title>Node29</title>
<g id="a_Node000029"><a xlink:href="group__ssd1306__base__driver.html#ga86a554181ce9cd671b255443f3076666" target="_top" xlink:title="set the display offset">
<polygon fill="white" stroke="#666666" points="270.5,-634 163,-634 163,-602 270.5,-602 270.5,-634"/>
<text xml:space="preserve" text-anchor="start" x="171" y="-620.5" font-family="Helvetica,sans-Serif" font-size="10.00">ssd1306_set_display</text>
<text xml:space="preserve" text-anchor="middle" x="216.75" y="-608.5" font-family="Helvetica,sans-Serif" font-size="10.00">_offset</text>
</a>
</g>
</g>
<!-- Node1&#45;&gt;Node29 -->
<g id="edge28_Node000001_Node000029" class="edge">
<title>Node1&#45;&gt;Node29</title>
<g id="a_edge28_Node000001_Node000029"><a xlink:title=" ">
<path fill="none" stroke="#63b8ff" d="M50.39,-921.61C50.04,-880.2 54.4,-725.17 135.25,-643 140.17,-638 146.06,-634 152.4,-630.8"/>
<polygon fill="#63b8ff" stroke="#63b8ff" points="153.45,-634.15 161.25,-626.99 150.68,-627.72 153.45,-634.15"/>
</a>
</g>
</g>
<!-- Node30 -->
<g id="Node000030" class="node">
<title>Node30</title>
<g id="a_Node000030"><a xlink:href="group__ssd1306__base__driver.html#ga9840154b11ab91249174b79fde6899bd" target="_top" xlink:title="set the display start line">
<polygon fill="white" stroke="#666666" points="270.5,-584 163,-584 163,-552 270.5,-552 270.5,-584"/>
<text xml:space="preserve" text-anchor="start" x="171" y="-570.5" font-family="Helvetica,sans-Serif" font-size="10.00">ssd1306_set_display</text>
<text xml:space="preserve" text-anchor="middle" x="216.75" y="-558.5" font-family="Helvetica,sans-Serif" font-size="10.00">_start_line</text>
</a>
</g>
</g>
<!-- Node1&#45;&gt;Node30 -->
<g id="edge29_Node000001_Node000030" class="edge">
<title>Node1&#45;&gt;Node30</title>
<g id="a_edge29_Node000001_Node000030"><a xlink:title=" ">
<path fill="none" stroke="#63b8ff" d="M51.86,-921.52C58.13,-869.88 88.06,-642.93 135.25,-593 140.13,-587.83 146.06,-583.73 152.46,-580.47"/>
<polygon fill="#63b8ff" stroke="#63b8ff" points="153.63,-583.77 161.43,-576.61 150.86,-577.35 153.63,-583.77"/>
</a>
</g>
</g>
<!-- Node31 -->
<g id="Node000031" class="node">
<title>Node31</title>
<g id="a_Node000031"><a xlink:href="group__ssd1306__base__driver.html#gae0a03db84a228eb20b9d3ba0c6624f57" target="_top" xlink:title="enable or disable the entire display">
<polygon fill="white" stroke="#666666" points="267.12,-534 166.38,-534 166.38,-502 267.12,-502 267.12,-534"/>
<text xml:space="preserve" text-anchor="start" x="174.38" y="-520.5" font-family="Helvetica,sans-Serif" font-size="10.00">ssd1306_set_entire</text>
<text xml:space="preserve" text-anchor="middle" x="216.75" y="-508.5" font-family="Helvetica,sans-Serif" font-size="10.00">_display</text>
</a>
</g>
</g>
<!-- Node1&#45;&gt;Node31 -->
<g id="edge30_Node000001_Node000031" class="edge">
<title>Node1&#45;&gt;Node31</title>
<g id="a_edge30_Node000001_Node000031"><a xlink:title=" ">
<path fill="none" stroke="#63b8ff" d="M51.5,-921.51C56.37,-865.42 81.89,-601.21 135.25,-543 140.82,-536.92 147.85,-532.3 155.41,-528.8"/>
<polygon fill="#63b8ff" stroke="#63b8ff" points="156.52,-532.13 164.56,-525.24 153.98,-525.61 156.52,-532.13"/>
</a>
</g>
</g>
<!-- Node32 -->
<g id="Node000032" class="node">
<title>Node32</title>
<g id="a_Node000032"><a xlink:href="group__ssd1306__base__driver.html#gabd899e41e08e8ce70e14b3718e9cfa2a" target="_top" xlink:title="set the fade blinking mode">
<polygon fill="white" stroke="#666666" points="298.25,-484 135.25,-484 135.25,-464 298.25,-464 298.25,-484"/>
<text xml:space="preserve" text-anchor="middle" x="216.75" y="-470.5" font-family="Helvetica,sans-Serif" font-size="10.00">ssd1306_set_fade_blinking_mode</text>
</a>
</g>
</g>
<!-- Node1&#45;&gt;Node32 -->
<g id="edge31_Node000001_Node000032" class="edge">
<title>Node1&#45;&gt;Node32</title>
<g id="a_edge31_Node000001_Node000032"><a xlink:title=" ">
<path fill="none" stroke="#63b8ff" d="M51.13,-921.72C54.31,-861.76 73.32,-557.55 135.25,-493 135.87,-492.36 136.5,-491.74 137.15,-491.14"/>
<polygon fill="#63b8ff" stroke="#63b8ff" points="139.18,-493.99 145.17,-485.25 135.03,-488.34 139.18,-493.99"/>
</a>
</g>
</g>
<!-- Node33 -->
<g id="Node000033" class="node">
<title>Node33</title>
<g id="a_Node000033"><a xlink:href="group__ssd1306__base__driver.html#gaa5160b65db212aa7150aa3a00cd3f47c" target="_top" xlink:title="set the high column start address">
<polygon fill="white" stroke="#666666" points="282.5,-446 151,-446 151,-414 282.5,-414 282.5,-446"/>
<text xml:space="preserve" text-anchor="start" x="159" y="-432.5" font-family="Helvetica,sans-Serif" font-size="10.00">ssd1306_set_high_column</text>
<text xml:space="preserve" text-anchor="middle" x="216.75" y="-420.5" font-family="Helvetica,sans-Serif" font-size="10.00">_start_address</text>
</a>
</g>
</g>
<!-- Node1&#45;&gt;Node33 -->
<g id="edge32_Node000001_Node000033" class="edge">
<title>Node1&#45;&gt;Node33</title>
<g id="a_edge32_Node000001_Node000033"><a xlink:title=" ">
<path fill="none" stroke="#63b8ff" d="M51.03,-921.74C53.72,-859.04 70.86,-528.02 135.25,-455 137.16,-452.84 139.24,-450.86 141.48,-449.05"/>
<polygon fill="#63b8ff" stroke="#63b8ff" points="143.08,-452.19 149.46,-443.73 139.19,-446.37 143.08,-452.19"/>
</a>
</g>
</g>
<!-- Node34 -->
<g id="Node000034" class="node">
<title>Node34</title>
<g id="a_Node000034"><a xlink:href="group__ssd1306__base__driver.html#gaf09a77d1992afb51a10d0dfa16ef7faf" target="_top" xlink:title="set the chip interface">
<polygon fill="white" stroke="#666666" points="273.88,-396 159.62,-396 159.62,-376 273.88,-376 273.88,-396"/>
<text xml:space="preserve" text-anchor="middle" x="216.75" y="-382.5" font-family="Helvetica,sans-Serif" font-size="10.00">ssd1306_set_interface</text>
</a>
</g>
</g>
<!-- Node1&#45;&gt;Node34 -->
<g id="edge33_Node000001_Node000034" class="edge">
<title>Node1&#45;&gt;Node34</title>
<g id="a_edge33_Node000001_Node000034"><a xlink:title=" ">
<path fill="none" stroke="#63b8ff" d="M50.77,-921.92C51.94,-855.76 61.73,-484.05 135.25,-405 139.18,-400.77 143.87,-397.4 148.97,-394.73"/>
<polygon fill="#63b8ff" stroke="#63b8ff" points="149.97,-398.1 157.81,-390.98 147.24,-391.66 149.97,-398.1"/>
</a>
</g>
</g>
<!-- Node35 -->
<g id="Node000035" class="node">
<title>Node35</title>
<g id="a_Node000035"><a xlink:href="group__ssd1306__base__driver.html#gad61d0d69d8da5b83515ce48d971c2559" target="_top" xlink:title="set the low column start address">
<polygon fill="white" stroke="#666666" points="281,-358 152.5,-358 152.5,-326 281,-326 281,-358"/>
<text xml:space="preserve" text-anchor="start" x="160.5" y="-344.5" font-family="Helvetica,sans-Serif" font-size="10.00">ssd1306_set_low_column</text>
<text xml:space="preserve" text-anchor="middle" x="216.75" y="-332.5" font-family="Helvetica,sans-Serif" font-size="10.00">_start_address</text>
</a>
</g>
</g>
<!-- Node1&#45;&gt;Node35 -->
<g id="edge34_Node000001_Node000035" class="edge">
<title>Node1&#45;&gt;Node35</title>
<g id="a_edge34_Node000001_Node000035"><a xlink:title=" ">
<path fill="none" stroke="#63b8ff" d="M50.72,-921.71C51.59,-852.5 59.84,-454.88 135.25,-367 137.44,-364.45 139.88,-362.15 142.52,-360.09"/>
<polygon fill="#63b8ff" stroke="#63b8ff" points="144.33,-363.09 150.85,-354.75 140.55,-357.2 144.33,-363.09"/>
</a>
</g>
</g>
<!-- Node36 -->
<g id="Node000036" class="node">
<title>Node36</title>
<g id="a_Node000036"><a xlink:href="group__ssd1306__base__driver.html#ga285a77dab43317a3885e669f7716eaba" target="_top" xlink:title="set the memory addressing mode">
<polygon fill="white" stroke="#666666" points="272.75,-308 160.75,-308 160.75,-276 272.75,-276 272.75,-308"/>
<text xml:space="preserve" text-anchor="start" x="168.75" y="-294.5" font-family="Helvetica,sans-Serif" font-size="10.00">ssd1306_set_memory</text>
<text xml:space="preserve" text-anchor="middle" x="216.75" y="-282.5" font-family="Helvetica,sans-Serif" font-size="10.00">_addressing_mode</text>
</a>
</g>
</g>
<!-- Node1&#45;&gt;Node36 -->
<g id="edge35_Node000001_Node000036" class="edge">
<title>Node1&#45;&gt;Node36</title>
<g id="a_edge35_Node000001_Node000036"><a xlink:title=" ">
<path fill="none" stroke="#63b8ff" d="M50.59,-921.75C50.52,-849.23 53.53,-413.39 135.25,-317 139.49,-311.99 144.72,-307.98 150.46,-304.75"/>
<polygon fill="#63b8ff" stroke="#63b8ff" points="151.57,-308.1 159.14,-300.68 148.6,-301.76 151.57,-308.1"/>
</a>
</g>
</g>
<!-- Node37 -->
<g id="Node000037" class="node">
<title>Node37</title>
<g id="a_Node000037"><a xlink:href="group__ssd1306__base__driver.html#ga94fbad6bc91e085ca4ff5cb5443b9411" target="_top" xlink:title="set the multiplex ratio">
<polygon fill="white" stroke="#666666" points="274.62,-258 158.88,-258 158.88,-226 274.62,-226 274.62,-258"/>
<text xml:space="preserve" text-anchor="start" x="166.88" y="-244.5" font-family="Helvetica,sans-Serif" font-size="10.00">ssd1306_set_multiplex</text>
<text xml:space="preserve" text-anchor="middle" x="216.75" y="-232.5" font-family="Helvetica,sans-Serif" font-size="10.00">_ratio</text>
</a>
</g>
</g>
<!-- Node1&#45;&gt;Node37 -->
<g id="edge36_Node000001_Node000037" class="edge">
<title>Node1&#45;&gt;Node37</title>
<g id="a_edge36_Node000001_Node000037"><a xlink:title=" ">
<path fill="none" stroke="#63b8ff" d="M50.47,-921.91C49.53,-846.57 47.16,-371.98 135.25,-267 138.98,-262.56 143.48,-258.89 148.42,-255.87"/>
<polygon fill="#63b8ff" stroke="#63b8ff" points="149.71,-259.14 157.04,-251.5 146.54,-252.9 149.71,-259.14"/>
</a>
</g>
</g>
<!-- Node38 -->
<g id="Node000038" class="node">
<title>Node38</title>
<g id="a_Node000038"><a xlink:href="group__ssd1306__base__driver.html#ga0b6186c60b72c021908e3284800a1c79" target="_top" xlink:title="set the page address range">
<polygon fill="white" stroke="#666666" points="285.5,-208 148,-208 148,-176 285.5,-176 285.5,-208"/>
<text xml:space="preserve" text-anchor="start" x="156" y="-194.5" font-family="Helvetica,sans-Serif" font-size="10.00">ssd1306_set_page_address</text>
<text xml:space="preserve" text-anchor="middle" x="216.75" y="-182.5" font-family="Helvetica,sans-Serif" font-size="10.00">_range</text>
</a>
</g>
</g>
<!-- Node1&#45;&gt;Node38 -->
<g id="edge37_Node000001_Node000038" class="edge">
<title>Node1&#45;&gt;Node38</title>
<g id="a_edge37_Node000001_Node000038"><a xlink:title=" ">
<path fill="none" stroke="#63b8ff" d="M51.17,-921.71C55.69,-838.26 87.89,-273.94 135.25,-217 136.36,-215.66 137.54,-214.4 138.79,-213.2"/>
<polygon fill="#63b8ff" stroke="#63b8ff" points="140.84,-216.04 146.58,-207.14 136.54,-210.51 140.84,-216.04"/>
</a>
</g>
</g>
<!-- Node39 -->
<g id="Node000039" class="node">
<title>Node39</title>
<g id="a_Node000039"><a xlink:href="group__ssd1306__base__driver.html#ga1fd4ade307b8ef8cac61d96ebe821456" target="_top" xlink:title="set the pre charge period">
<polygon fill="white" stroke="#666666" points="276.5,-158 157,-158 157,-126 276.5,-126 276.5,-158"/>
<text xml:space="preserve" text-anchor="start" x="165" y="-144.5" font-family="Helvetica,sans-Serif" font-size="10.00">ssd1306_set_precharge</text>
<text xml:space="preserve" text-anchor="middle" x="216.75" y="-132.5" font-family="Helvetica,sans-Serif" font-size="10.00">_period</text>
</a>
</g>
</g>
<!-- Node1&#45;&gt;Node39 -->
<g id="edge38_Node000001_Node000039" class="edge">
<title>Node1&#45;&gt;Node39</title>
<g id="a_edge38_Node000001_Node000039"><a xlink:title=" ">
<path fill="none" stroke="#63b8ff" d="M51.1,-921.55C55.12,-834.27 84.75,-228.19 135.25,-167 138.53,-163.02 142.44,-159.66 146.74,-156.83"/>
<polygon fill="#63b8ff" stroke="#63b8ff" points="148.23,-160 155.34,-152.16 144.89,-153.85 148.23,-160"/>
</a>
</g>
</g>
<!-- Node40 -->
<g id="Node000040" class="node">
<title>Node40</title>
<g id="a_Node000040"><a xlink:href="group__ssd1306__base__driver.html#ga1c48fc249314c05eb74774f712afa050" target="_top" xlink:title="set the scan direction">
<polygon fill="white" stroke="#666666" points="286.62,-108 146.88,-108 146.88,-88 286.62,-88 286.62,-108"/>
<text xml:space="preserve" text-anchor="middle" x="216.75" y="-94.5" font-family="Helvetica,sans-Serif" font-size="10.00">ssd1306_set_scan_direction</text>
</a>
</g>
</g>
<!-- Node1&#45;&gt;Node40 -->
<g id="edge39_Node000001_Node000040" class="edge">
<title>Node1&#45;&gt;Node40</title>
<g id="a_edge39_Node000001_Node000040"><a xlink:title=" ">
<path fill="none" stroke="#63b8ff" d="M50.98,-921.71C54.19,-831.72 79.3,-180.63 135.25,-117 135.96,-116.2 136.69,-115.43 137.44,-114.68"/>
<polygon fill="#63b8ff" stroke="#63b8ff" points="139.4,-117.6 145.2,-108.73 135.14,-112.04 139.4,-117.6"/>
</a>
</g>
</g>
<!-- Node41 -->
<g id="Node000041" class="node">
<title>Node41</title>
<g id="a_Node000041"><a xlink:href="group__ssd1306__base__driver.html#gaa897931b4f2650d9fcf4edea9dadea48" target="_top" xlink:title="set the segment remap">
<polygon fill="white" stroke="#666666" points="273.88,-70 159.62,-70 159.62,-38 273.88,-38 273.88,-70"/>
<text xml:space="preserve" text-anchor="start" x="167.62" y="-56.5" font-family="Helvetica,sans-Serif" font-size="10.00">ssd1306_set_segment</text>
<text xml:space="preserve" text-anchor="middle" x="216.75" y="-44.5" font-family="Helvetica,sans-Serif" font-size="10.00">_remap</text>
</a>
</g>
</g>
<!-- Node1&#45;&gt;Node41 -->
<g id="edge40_Node000001_Node000041" class="edge">
<title>Node1&#45;&gt;Node41</title>
<g id="a_edge40_Node000001_Node000041"><a xlink:title=" ">
<path fill="none" stroke="#63b8ff" d="M50.97,-921.55C54.13,-828.77 79.16,-147.76 135.25,-79 139.18,-74.18 144.03,-70.27 149.37,-67.11"/>
<polygon fill="#63b8ff" stroke="#63b8ff" points="150.65,-70.38 158.09,-62.84 147.57,-64.09 150.65,-70.38"/>
</a>
</g>
</g>
<!-- Node42 -->
<g id="Node000042" class="node">
<title>Node42</title>
<g id="a_Node000042"><a xlink:href="group__ssd1306__base__driver.html#ga1b1cda97c2bbcf0de6e84d6a499be103" target="_top" xlink:title="set the display zoom in">
<polygon fill="white" stroke="#666666" points="273.5,-20 160,-20 160,0 273.5,0 273.5,-20"/>
<text xml:space="preserve" text-anchor="middle" x="216.75" y="-6.5" font-family="Helvetica,sans-Serif" font-size="10.00">ssd1306_set_zoom_in</text>
</a>
</g>
</g>
<!-- Node1&#45;&gt;Node42 -->
<g id="edge41_Node000001_Node000042" class="edge">
<title>Node1&#45;&gt;Node42</title>
<g id="a_edge41_Node000001_Node000042"><a xlink:title=" ">
<path fill="none" stroke="#63b8ff" d="M50.88,-921.52C53.29,-825.48 73.48,-99.96 135.25,-29 139.16,-24.51 143.91,-20.98 149.13,-18.21"/>
<polygon fill="#63b8ff" stroke="#63b8ff" points="150.4,-21.47 158.25,-14.36 147.68,-15.02 150.4,-21.47"/>
</a>
</g>
</g>
</g>
</svg>
