<?xml version="1.0" encoding="UTF-8" standalone="no"?>
<!DOCTYPE svg PUBLIC "-//W3C//DTD SVG 1.1//EN"
 "http://www.w3.org/Graphics/SVG/1.1/DTD/svg11.dtd">
<!-- Generated by graphviz version 13.1.0 (20250701.0955)
 -->
<!-- Title: ssd1306_basic_picture Pages: 1 -->
<svg width="300pt" height="66pt"
 viewBox="0.00 0.00 300.00 66.00" xmlns="http://www.w3.org/2000/svg" xmlns:xlink="http://www.w3.org/1999/xlink">
<g id="graph0" class="graph" transform="scale(1 1) rotate(0) translate(4 62)">
<title>ssd1306_basic_picture</title>
<!-- Node1 -->
<g id="Node000001" class="node">
<title>Node1</title>
<g id="a_Node000001"><a xlink:title="basic example draw a picture">
<polygon fill="#999999" stroke="#666666" points="115.75,-39 0,-39 0,-19 115.75,-19 115.75,-39"/>
<text xml:space="preserve" text-anchor="middle" x="57.88" y="-25.5" font-family="Helvetica,sans-Serif" font-size="10.00">ssd1306_basic_picture</text>
</a>
</g>
</g>
<!-- Node2 -->
<g id="Node000002" class="node">
<title>Node2</title>
<g id="a_Node000002"><a xlink:href="group__ssd1306__base__driver.html#ga4c12993f9009017f3c6b58f2c98dda75" target="_top" xlink:title="draw a picture in the gram">
<polygon fill="white" stroke="#666666" points="292.25,-58 151.75,-58 151.75,-38 292.25,-38 292.25,-58"/>
<text xml:space="preserve" text-anchor="middle" x="222" y="-44.5" font-family="Helvetica,sans-Serif" font-size="10.00">ssd1306_gram_draw_picture</text>
</a>
</g>
</g>
<!-- Node1&#45;&gt;Node2 -->
<g id="edge1_Node000001_Node000002" class="edge">
<title>Node1&#45;&gt;Node2</title>
<g id="a_edge1_Node000001_Node000002"><a xlink:title=" ">
<path fill="none" stroke="#63b8ff" d="M116.03,-35.7C123.78,-36.61 131.84,-37.55 139.91,-38.5"/>
<polygon fill="#63b8ff" stroke="#63b8ff" points="139.44,-41.97 149.78,-39.65 140.25,-35.01 139.44,-41.97"/>
</a>
</g>
</g>
<!-- Node3 -->
<g id="Node000003" class="node">
<title>Node3</title>
<g id="a_Node000003"><a xlink:href="group__ssd1306__base__driver.html#gad13acd1205c86a2c63ac8b22df33dba1" target="_top" xlink:title="update the gram data">
<polygon fill="white" stroke="#666666" points="279.12,-20 164.88,-20 164.88,0 279.12,0 279.12,-20"/>
<text xml:space="preserve" text-anchor="middle" x="222" y="-6.5" font-family="Helvetica,sans-Serif" font-size="10.00">ssd1306_gram_update</text>
</a>
</g>
</g>
<!-- Node1&#45;&gt;Node3 -->
<g id="edge2_Node000001_Node000003" class="edge">
<title>Node1&#45;&gt;Node3</title>
<g id="a_edge2_Node000001_Node000003"><a xlink:title=" ">
<path fill="none" stroke="#63b8ff" d="M116.03,-22.3C128.11,-20.89 140.96,-19.38 153.38,-17.92"/>
<polygon fill="#63b8ff" stroke="#63b8ff" points="153.6,-21.42 163.13,-16.78 152.79,-14.47 153.6,-21.42"/>
</a>
</g>
</g>
</g>
</svg>
