<?xml version="1.0" encoding="UTF-8" standalone="no"?>
<!DOCTYPE svg PUBLIC "-//W3C//DTD SVG 1.1//EN"
 "http://www.w3.org/Graphics/SVG/1.1/DTD/svg11.dtd">
<!-- Generated by graphviz version 13.1.0 (20250701.0955)
 -->
<!-- Title: ssd1306_basic_rect Pages: 1 -->
<svg width="264pt" height="66pt"
 viewBox="0.00 0.00 264.00 66.00" xmlns="http://www.w3.org/2000/svg" xmlns:xlink="http://www.w3.org/1999/xlink">
<g id="graph0" class="graph" transform="scale(1 1) rotate(0) translate(4 62)">
<title>ssd1306_basic_rect</title>
<!-- Node1 -->
<g id="Node000001" class="node">
<title>Node1</title>
<g id="a_Node000001"><a xlink:title="basic example fill a rectangle">
<polygon fill="#999999" stroke="#666666" points="103,-39 0,-39 0,-19 103,-19 103,-39"/>
<text xml:space="preserve" text-anchor="middle" x="51.5" y="-25.5" font-family="Helvetica,sans-Serif" font-size="10.00">ssd1306_basic_rect</text>
</a>
</g>
</g>
<!-- Node2 -->
<g id="Node000002" class="node">
<title>Node2</title>
<g id="a_Node000002"><a xlink:href="group__ssd1306__base__driver.html#ga6c67db47ad6765b8faa8703d571df584" target="_top" xlink:title="fill a rectangle in the gram">
<polygon fill="white" stroke="#666666" points="255.5,-58 139,-58 139,-38 255.5,-38 255.5,-58"/>
<text xml:space="preserve" text-anchor="middle" x="197.25" y="-44.5" font-family="Helvetica,sans-Serif" font-size="10.00">ssd1306_gram_fill_rect</text>
</a>
</g>
</g>
<!-- Node1&#45;&gt;Node2 -->
<g id="edge1_Node000001_Node000002" class="edge">
<title>Node1&#45;&gt;Node2</title>
<g id="a_edge1_Node000001_Node000002"><a xlink:title=" ">
<path fill="none" stroke="#63b8ff" d="M103.18,-35.7C110.98,-36.73 119.15,-37.81 127.27,-38.88"/>
<polygon fill="#63b8ff" stroke="#63b8ff" points="126.8,-42.35 137.17,-40.19 127.71,-35.41 126.8,-42.35"/>
</a>
</g>
</g>
<!-- Node3 -->
<g id="Node000003" class="node">
<title>Node3</title>
<g id="a_Node000003"><a xlink:href="group__ssd1306__base__driver.html#gad13acd1205c86a2c63ac8b22df33dba1" target="_top" xlink:title="update the gram data">
<polygon fill="white" stroke="#666666" points="254.38,-20 140.12,-20 140.12,0 254.38,0 254.38,-20"/>
<text xml:space="preserve" text-anchor="middle" x="197.25" y="-6.5" font-family="Helvetica,sans-Serif" font-size="10.00">ssd1306_gram_update</text>
</a>
</g>
</g>
<!-- Node1&#45;&gt;Node3 -->
<g id="edge2_Node000001_Node000003" class="edge">
<title>Node1&#45;&gt;Node3</title>
<g id="a_edge2_Node000001_Node000003"><a xlink:title=" ">
<path fill="none" stroke="#63b8ff" d="M103.18,-22.3C111.39,-21.22 120,-20.08 128.53,-18.95"/>
<polygon fill="#63b8ff" stroke="#63b8ff" points="128.7,-22.46 138.16,-17.68 127.79,-15.52 128.7,-22.46"/>
</a>
</g>
</g>
</g>
</svg>
