<?xml version="1.0" encoding="UTF-8" standalone="no"?>
<!DOCTYPE svg PUBLIC "-//W3C//DTD SVG 1.1//EN"
 "http://www.w3.org/Graphics/SVG/1.1/DTD/svg11.dtd">
<!-- Generated by graphviz version 13.1.0 (20250701.0955)
 -->
<!-- Title: ssd1306_advance_vertical_left_horizontal_scroll Pages: 1 -->
<svg width="297pt" height="128pt"
 viewBox="0.00 0.00 297.00 128.00" xmlns="http://www.w3.org/2000/svg" xmlns:xlink="http://www.w3.org/1999/xlink">
<g id="graph0" class="graph" transform="scale(1 1) rotate(0) translate(4 124)">
<title>ssd1306_advance_vertical_left_horizontal_scroll</title>
<!-- Node1 -->
<g id="Node000001" class="node">
<title>Node1</title>
<g id="a_Node000001"><a xlink:title="advance example enable the left horizontal scroll">
<polygon fill="#999999" stroke="#666666" points="131.5,-82 0,-82 0,-50 131.5,-50 131.5,-82"/>
<text xml:space="preserve" text-anchor="start" x="8" y="-68.5" font-family="Helvetica,sans-Serif" font-size="10.00">ssd1306_advance_vertical</text>
<text xml:space="preserve" text-anchor="middle" x="65.75" y="-56.5" font-family="Helvetica,sans-Serif" font-size="10.00">_left_horizontal_scroll</text>
</a>
</g>
</g>
<!-- Node2 -->
<g id="Node000002" class="node">
<title>Node2</title>
<g id="a_Node000002"><a xlink:href="group__ssd1306__base__driver.html#ga931e1af4eef39b43a262040931c062d9" target="_top" xlink:title="activate the scroll">
<polygon fill="white" stroke="#666666" points="288.5,-120 167.5,-120 167.5,-100 288.5,-100 288.5,-120"/>
<text xml:space="preserve" text-anchor="middle" x="228" y="-106.5" font-family="Helvetica,sans-Serif" font-size="10.00">ssd1306_activate_scroll</text>
</a>
</g>
</g>
<!-- Node1&#45;&gt;Node2 -->
<g id="edge1_Node000001_Node000002" class="edge">
<title>Node1&#45;&gt;Node2</title>
<g id="a_edge1_Node000001_Node000002"><a xlink:title=" ">
<path fill="none" stroke="#63b8ff" d="M126.42,-82.38C143.48,-87.07 161.87,-92.12 178.2,-96.6"/>
<polygon fill="#63b8ff" stroke="#63b8ff" points="177.11,-99.93 187.68,-99.2 178.96,-93.18 177.11,-99.93"/>
</a>
</g>
</g>
<!-- Node3 -->
<g id="Node000003" class="node">
<title>Node3</title>
<g id="a_Node000003"><a xlink:href="group__ssd1306__base__driver.html#ga99842fb1e272b67cfc055d373f89749b" target="_top" xlink:title="deactivate the scroll">
<polygon fill="white" stroke="#666666" points="279.5,-82 176.5,-82 176.5,-50 279.5,-50 279.5,-82"/>
<text xml:space="preserve" text-anchor="start" x="184.5" y="-68.5" font-family="Helvetica,sans-Serif" font-size="10.00">ssd1306_deactivate</text>
<text xml:space="preserve" text-anchor="middle" x="228" y="-56.5" font-family="Helvetica,sans-Serif" font-size="10.00">_scroll</text>
</a>
</g>
</g>
<!-- Node1&#45;&gt;Node3 -->
<g id="edge2_Node000001_Node000003" class="edge">
<title>Node1&#45;&gt;Node3</title>
<g id="a_edge2_Node000001_Node000003"><a xlink:title=" ">
<path fill="none" stroke="#63b8ff" d="M131.93,-66C142.75,-66 153.94,-66 164.69,-66"/>
<polygon fill="#63b8ff" stroke="#63b8ff" points="164.62,-69.5 174.62,-66 164.62,-62.5 164.62,-69.5"/>
</a>
</g>
</g>
<!-- Node4 -->
<g id="Node000004" class="node">
<title>Node4</title>
<g id="a_Node000004"><a xlink:href="group__ssd1306__base__driver.html#gad0ae391a2f3d129fce7675d50b00b0f3" target="_top" xlink:title="set the vertical left horizontal scroll">
<polygon fill="white" stroke="#666666" points="283.25,-32 172.75,-32 172.75,0 283.25,0 283.25,-32"/>
<text xml:space="preserve" text-anchor="start" x="180.75" y="-18.5" font-family="Helvetica,sans-Serif" font-size="10.00">ssd1306_set_vertical</text>
<text xml:space="preserve" text-anchor="middle" x="228" y="-6.5" font-family="Helvetica,sans-Serif" font-size="10.00">_left_horizontal_scroll</text>
</a>
</g>
</g>
<!-- Node1&#45;&gt;Node4 -->
<g id="edge3_Node000001_Node000004" class="edge">
<title>Node1&#45;&gt;Node4</title>
<g id="a_edge3_Node000001_Node000004"><a xlink:title=" ">
<path fill="none" stroke="#63b8ff" d="M119.22,-49.63C133.26,-45.25 148.59,-40.46 163.17,-35.92"/>
<polygon fill="#63b8ff" stroke="#63b8ff" points="164.19,-39.26 172.69,-32.95 162.1,-32.58 164.19,-39.26"/>
</a>
</g>
</g>
</g>
</svg>
