<?xml version="1.0" encoding="UTF-8" standalone="no"?>
<!DOCTYPE svg PUBLIC "-//W3C//DTD SVG 1.1//EN"
 "http://www.w3.org/Graphics/SVG/1.1/DTD/svg11.dtd">
<!-- Generated by graphviz version 13.1.0 (20250701.0955)
 -->
<!-- Title: ssd1306_advance_init Pages: 1 -->
<svg width="320pt" height="1860pt"
 viewBox="0.00 0.00 320.00 1860.00" xmlns="http://www.w3.org/2000/svg" xmlns:xlink="http://www.w3.org/1999/xlink">
<g id="graph0" class="graph" transform="scale(1 1) rotate(0) translate(4 1856)">
<title>ssd1306_advance_init</title>
<!-- Node1 -->
<g id="Node000001" class="node">
<title>Node1</title>
<g id="a_Node000001"><a xlink:title="advance example init">
<polygon fill="#999999" stroke="#666666" points="112.75,-942 0,-942 0,-922 112.75,-922 112.75,-942"/>
<text xml:space="preserve" text-anchor="middle" x="56.38" y="-928.5" font-family="Helvetica,sans-Serif" font-size="10.00">ssd1306_advance_init</text>
</a>
</g>
</g>
<!-- Node2 -->
<g id="Node000002" class="node">
<title>Node2</title>
<g id="a_Node000002"><a xlink:href="group__ssd1306__base__driver.html#gabdb73f24b43dcd93775ea24702b938d4" target="_top" xlink:title="clear the screen">
<polygon fill="white" stroke="#666666" points="269.75,-1852 190.75,-1852 190.75,-1832 269.75,-1832 269.75,-1852"/>
<text xml:space="preserve" text-anchor="middle" x="230.25" y="-1838.5" font-family="Helvetica,sans-Serif" font-size="10.00">ssd1306_clear</text>
</a>
</g>
</g>
<!-- Node1&#45;&gt;Node2 -->
<g id="edge1_Node000001_Node000002" class="edge">
<title>Node1&#45;&gt;Node2</title>
<g id="a_edge1_Node000001_Node000002"><a xlink:title=" ">
<path fill="none" stroke="#63b8ff" d="M57.72,-942.34C60.97,-1037.13 87.44,-1753.19 148.75,-1823 156.58,-1831.91 167.73,-1837.05 179.26,-1839.92"/>
<polygon fill="#63b8ff" stroke="#63b8ff" points="178.35,-1843.32 188.83,-1841.75 179.67,-1836.44 178.35,-1843.32"/>
</a>
</g>
</g>
<!-- Node3 -->
<g id="Node000003" class="node">
<title>Node3</title>
<g id="a_Node000003"><a xlink:href="group__ssd1306__base__driver.html#ga99842fb1e272b67cfc055d373f89749b" target="_top" xlink:title="deactivate the scroll">
<polygon fill="white" stroke="#666666" points="281.75,-1814 178.75,-1814 178.75,-1782 281.75,-1782 281.75,-1814"/>
<text xml:space="preserve" text-anchor="start" x="186.75" y="-1800.5" font-family="Helvetica,sans-Serif" font-size="10.00">ssd1306_deactivate</text>
<text xml:space="preserve" text-anchor="middle" x="230.25" y="-1788.5" font-family="Helvetica,sans-Serif" font-size="10.00">_scroll</text>
</a>
</g>
</g>
<!-- Node1&#45;&gt;Node3 -->
<g id="edge2_Node000001_Node000003" class="edge">
<title>Node1&#45;&gt;Node3</title>
<g id="a_edge2_Node000001_Node000003"><a xlink:title=" ">
<path fill="none" stroke="#63b8ff" d="M57.82,-942.31C61.83,-1033.81 93.08,-1705.4 148.75,-1773 153.93,-1779.29 160.67,-1784.03 168.04,-1787.59"/>
<polygon fill="#63b8ff" stroke="#63b8ff" points="166.4,-1790.7 176.99,-1791.19 169.01,-1784.21 166.4,-1790.7"/>
</a>
</g>
</g>
<!-- Node4 -->
<g id="Node000004" class="node">
<title>Node4</title>
<g id="a_Node000004"><a xlink:href="group__ssd1306__base__driver.html#gaa6ab33cbbce1ee0b495abf2fe5b208f0" target="_top" xlink:title="close the chip">
<polygon fill="white" stroke="#666666" points="270.88,-1764 189.62,-1764 189.62,-1744 270.88,-1744 270.88,-1764"/>
<text xml:space="preserve" text-anchor="middle" x="230.25" y="-1750.5" font-family="Helvetica,sans-Serif" font-size="10.00">ssd1306_deinit</text>
</a>
</g>
</g>
<!-- Node1&#45;&gt;Node4 -->
<g id="edge3_Node000001_Node000004" class="edge">
<title>Node1&#45;&gt;Node4</title>
<g id="a_edge3_Node000001_Node000004"><a xlink:title=" ">
<path fill="none" stroke="#63b8ff" d="M57.84,-942.43C61.98,-1032.17 93.32,-1672.58 148.75,-1735 156.33,-1743.54 166.97,-1748.6 178.03,-1751.53"/>
<polygon fill="#63b8ff" stroke="#63b8ff" points="177.15,-1754.93 187.65,-1753.49 178.55,-1748.07 177.15,-1754.93"/>
</a>
</g>
</g>
<!-- Node5 -->
<g id="Node000005" class="node">
<title>Node5</title>
<g id="a_Node000005"><a xlink:href="group__ssd1306__base__driver.html#gaff19089a6c734bd8cf06d5bfc610f0e4" target="_top" xlink:title="initialize the chip">
<polygon fill="white" stroke="#666666" points="265.62,-1726 194.88,-1726 194.88,-1706 265.62,-1706 265.62,-1726"/>
<text xml:space="preserve" text-anchor="middle" x="230.25" y="-1712.5" font-family="Helvetica,sans-Serif" font-size="10.00">ssd1306_init</text>
</a>
</g>
</g>
<!-- Node1&#45;&gt;Node5 -->
<g id="edge4_Node000001_Node000005" class="edge">
<title>Node1&#45;&gt;Node5</title>
<g id="a_edge4_Node000001_Node000005"><a xlink:title=" ">
<path fill="none" stroke="#63b8ff" d="M57.91,-942.48C62.46,-1030.01 95.85,-1637.76 148.75,-1697 157.55,-1706.86 170.43,-1712.08 183.32,-1714.73"/>
<polygon fill="#63b8ff" stroke="#63b8ff" points="182.63,-1718.17 193.04,-1716.22 183.69,-1711.25 182.63,-1718.17"/>
</a>
</g>
</g>
<!-- Node6 -->
<g id="Node000006" class="node">
<title>Node6</title>
<g id="a_Node000006"><a xlink:href="group__ssd1306__interface__driver.html#ga8bab7b11c6b9ed5a7a58e14911b0e6a2" target="_top" xlink:title="interface print format data">
<polygon fill="white" stroke="#666666" points="293.75,-1688 166.75,-1688 166.75,-1656 293.75,-1656 293.75,-1688"/>
<text xml:space="preserve" text-anchor="start" x="174.75" y="-1674.5" font-family="Helvetica,sans-Serif" font-size="10.00">ssd1306_interface_debug</text>
<text xml:space="preserve" text-anchor="middle" x="230.25" y="-1662.5" font-family="Helvetica,sans-Serif" font-size="10.00">_print</text>
</a>
</g>
</g>
<!-- Node1&#45;&gt;Node6 -->
<g id="edge5_Node000001_Node000006" class="edge">
<title>Node1&#45;&gt;Node6</title>
<g id="a_edge5_Node000001_Node000006"><a xlink:title=" ">
<path fill="none" stroke="#63b8ff" d="M57.22,-942.34C56.26,-1021.68 53.8,-1533.91 148.75,-1647 151.15,-1649.86 153.87,-1652.39 156.82,-1654.65"/>
<polygon fill="#63b8ff" stroke="#63b8ff" points="154.68,-1657.43 165.01,-1659.77 158.39,-1651.5 154.68,-1657.43"/>
</a>
</g>
</g>
<!-- Node7 -->
<g id="Node000007" class="node">
<title>Node7</title>
<g id="a_Node000007"><a xlink:href="group__ssd1306__interface__driver.html#gaf6aebd2ef1dcc25a8a046ed67a989495" target="_top" xlink:title="interface delay ms">
<polygon fill="white" stroke="#666666" points="301.62,-1638 158.88,-1638 158.88,-1618 301.62,-1618 301.62,-1638"/>
<text xml:space="preserve" text-anchor="middle" x="230.25" y="-1624.5" font-family="Helvetica,sans-Serif" font-size="10.00">ssd1306_interface_delay_ms</text>
</a>
</g>
</g>
<!-- Node1&#45;&gt;Node7 -->
<g id="edge6_Node000001_Node000007" class="edge">
<title>Node1&#45;&gt;Node7</title>
<g id="a_edge6_Node000001_Node000007"><a xlink:title=" ">
<path fill="none" stroke="#63b8ff" d="M57.23,-942.34C56.4,-1019.52 54.94,-1505.55 148.75,-1609 149.23,-1609.53 149.73,-1610.05 150.23,-1610.56"/>
<polygon fill="#63b8ff" stroke="#63b8ff" points="148.07,-1613.31 158.11,-1616.7 152.38,-1607.79 148.07,-1613.31"/>
</a>
</g>
</g>
<!-- Node8 -->
<g id="Node000008" class="node">
<title>Node8</title>
<g id="a_Node000008"><a xlink:href="group__ssd1306__interface__driver.html#gaae3e98f3b42bffad41438de20585664c" target="_top" xlink:title="interface iic bus deinit">
<polygon fill="white" stroke="#666666" points="285.5,-1600 175,-1600 175,-1568 285.5,-1568 285.5,-1600"/>
<text xml:space="preserve" text-anchor="start" x="183" y="-1586.5" font-family="Helvetica,sans-Serif" font-size="10.00">ssd1306_interface_iic</text>
<text xml:space="preserve" text-anchor="middle" x="230.25" y="-1574.5" font-family="Helvetica,sans-Serif" font-size="10.00">_deinit</text>
</a>
</g>
</g>
<!-- Node1&#45;&gt;Node8 -->
<g id="edge7_Node000001_Node000008" class="edge">
<title>Node1&#45;&gt;Node8</title>
<g id="a_edge7_Node000001_Node000008"><a xlink:title=" ">
<path fill="none" stroke="#63b8ff" d="M57.43,-942.45C58,-1016.42 64.95,-1460.95 148.75,-1559 153.14,-1564.13 158.55,-1568.23 164.49,-1571.49"/>
<polygon fill="#63b8ff" stroke="#63b8ff" points="162.95,-1574.63 173.5,-1575.61 165.86,-1568.27 162.95,-1574.63"/>
</a>
</g>
</g>
<!-- Node9 -->
<g id="Node000009" class="node">
<title>Node9</title>
<g id="a_Node000009"><a xlink:href="group__ssd1306__interface__driver.html#ga33673b85b80570b0c2b157857dc527ff" target="_top" xlink:title="interface iic bus init">
<polygon fill="white" stroke="#666666" points="294.5,-1550 166,-1550 166,-1530 294.5,-1530 294.5,-1550"/>
<text xml:space="preserve" text-anchor="middle" x="230.25" y="-1536.5" font-family="Helvetica,sans-Serif" font-size="10.00">ssd1306_interface_iic_init</text>
</a>
</g>
</g>
<!-- Node1&#45;&gt;Node9 -->
<g id="edge8_Node000001_Node000009" class="edge">
<title>Node1&#45;&gt;Node9</title>
<g id="a_edge8_Node000001_Node000009"><a xlink:title=" ">
<path fill="none" stroke="#63b8ff" d="M57.46,-942.33C58.27,-1013.61 66.54,-1432.12 148.75,-1521 150.92,-1523.34 153.31,-1525.42 155.88,-1527.26"/>
<polygon fill="#63b8ff" stroke="#63b8ff" points="154.11,-1530.28 164.53,-1532.2 157.58,-1524.2 154.11,-1530.28"/>
</a>
</g>
</g>
<!-- Node10 -->
<g id="Node000010" class="node">
<title>Node10</title>
<g id="a_Node000010"><a xlink:href="group__ssd1306__interface__driver.html#ga6ccc0b463a08718eb4a9f0a5333f18a5" target="_top" xlink:title="interface iic bus write">
<polygon fill="white" stroke="#666666" points="285.5,-1512 175,-1512 175,-1480 285.5,-1480 285.5,-1512"/>
<text xml:space="preserve" text-anchor="start" x="183" y="-1498.5" font-family="Helvetica,sans-Serif" font-size="10.00">ssd1306_interface_iic</text>
<text xml:space="preserve" text-anchor="middle" x="230.25" y="-1486.5" font-family="Helvetica,sans-Serif" font-size="10.00">_write</text>
</a>
</g>
</g>
<!-- Node1&#45;&gt;Node10 -->
<g id="edge9_Node000001_Node000010" class="edge">
<title>Node1&#45;&gt;Node10</title>
<g id="a_edge9_Node000001_Node000010"><a xlink:title=" ">
<path fill="none" stroke="#63b8ff" d="M57.69,-942.26C59.97,-1009.55 75.94,-1387.78 148.75,-1471 153.13,-1476.01 158.5,-1480.03 164.36,-1483.25"/>
<polygon fill="#63b8ff" stroke="#63b8ff" points="162.69,-1486.33 173.23,-1487.32 165.61,-1479.97 162.69,-1486.33"/>
</a>
</g>
</g>
<!-- Node11 -->
<g id="Node000011" class="node">
<title>Node11</title>
<g id="a_Node000011"><a xlink:href="group__ssd1306__interface__driver.html#gaa4c65bea7a6c2fb1ad604d36c09990a6" target="_top" xlink:title="interface reset gpio deinit">
<polygon fill="white" stroke="#666666" points="291.5,-1462 169,-1462 169,-1430 291.5,-1430 291.5,-1462"/>
<text xml:space="preserve" text-anchor="start" x="177" y="-1448.5" font-family="Helvetica,sans-Serif" font-size="10.00">ssd1306_interface_reset</text>
<text xml:space="preserve" text-anchor="middle" x="230.25" y="-1436.5" font-family="Helvetica,sans-Serif" font-size="10.00">_gpio_deinit</text>
</a>
</g>
</g>
<!-- Node1&#45;&gt;Node11 -->
<g id="edge10_Node000001_Node000011" class="edge">
<title>Node1&#45;&gt;Node11</title>
<g id="a_edge10_Node000001_Node000011"><a xlink:title=" ">
<path fill="none" stroke="#63b8ff" d="M57.88,-942.11C61.22,-1005.36 82.15,-1346.16 148.75,-1421 151.73,-1424.35 155.15,-1427.25 158.86,-1429.77"/>
<polygon fill="#63b8ff" stroke="#63b8ff" points="156.85,-1432.66 167.28,-1434.53 160.29,-1426.56 156.85,-1432.66"/>
</a>
</g>
</g>
<!-- Node12 -->
<g id="Node000012" class="node">
<title>Node12</title>
<g id="a_Node000012"><a xlink:href="group__ssd1306__interface__driver.html#ga8963602e6b576a606c3e7e1e32616ded" target="_top" xlink:title="interface reset gpio init">
<polygon fill="white" stroke="#666666" points="291.5,-1412 169,-1412 169,-1380 291.5,-1380 291.5,-1412"/>
<text xml:space="preserve" text-anchor="start" x="177" y="-1398.5" font-family="Helvetica,sans-Serif" font-size="10.00">ssd1306_interface_reset</text>
<text xml:space="preserve" text-anchor="middle" x="230.25" y="-1386.5" font-family="Helvetica,sans-Serif" font-size="10.00">_gpio_init</text>
</a>
</g>
</g>
<!-- Node1&#45;&gt;Node12 -->
<g id="edge11_Node000001_Node000012" class="edge">
<title>Node1&#45;&gt;Node12</title>
<g id="a_edge11_Node000001_Node000012"><a xlink:title=" ">
<path fill="none" stroke="#63b8ff" d="M58.12,-942.22C62.65,-1001.87 88.42,-1304.59 148.75,-1371 151.76,-1374.32 155.21,-1377.2 158.94,-1379.7"/>
<polygon fill="#63b8ff" stroke="#63b8ff" points="156.95,-1382.6 167.39,-1384.43 160.37,-1376.49 156.95,-1382.6"/>
</a>
</g>
</g>
<!-- Node13 -->
<g id="Node000013" class="node">
<title>Node13</title>
<g id="a_Node000013"><a xlink:href="group__ssd1306__interface__driver.html#gaca8445896f6cb832cba4e68e3a051a1e" target="_top" xlink:title="interface reset gpio write">
<polygon fill="white" stroke="#666666" points="291.5,-1362 169,-1362 169,-1330 291.5,-1330 291.5,-1362"/>
<text xml:space="preserve" text-anchor="start" x="177" y="-1348.5" font-family="Helvetica,sans-Serif" font-size="10.00">ssd1306_interface_reset</text>
<text xml:space="preserve" text-anchor="middle" x="230.25" y="-1336.5" font-family="Helvetica,sans-Serif" font-size="10.00">_gpio_write</text>
</a>
</g>
</g>
<!-- Node1&#45;&gt;Node13 -->
<g id="edge12_Node000001_Node000013" class="edge">
<title>Node1&#45;&gt;Node13</title>
<g id="a_edge12_Node000001_Node000013"><a xlink:title=" ">
<path fill="none" stroke="#63b8ff" d="M58.44,-942.49C64.34,-998.63 94.71,-1263.02 148.75,-1321 151.81,-1324.28 155.28,-1327.13 159.04,-1329.61"/>
<polygon fill="#63b8ff" stroke="#63b8ff" points="157.08,-1332.53 167.53,-1334.31 160.47,-1326.41 157.08,-1332.53"/>
</a>
</g>
</g>
<!-- Node14 -->
<g id="Node000014" class="node">
<title>Node14</title>
<g id="a_Node000014"><a xlink:href="group__ssd1306__interface__driver.html#gac795f4d2085f4370014d921f0e237415" target="_top" xlink:title="interface command &amp;&amp; data gpio deinit">
<polygon fill="white" stroke="#666666" points="288.12,-1312 172.38,-1312 172.38,-1280 288.12,-1280 288.12,-1312"/>
<text xml:space="preserve" text-anchor="start" x="180.38" y="-1298.5" font-family="Helvetica,sans-Serif" font-size="10.00">ssd1306_interface_spi</text>
<text xml:space="preserve" text-anchor="middle" x="230.25" y="-1286.5" font-family="Helvetica,sans-Serif" font-size="10.00">_cmd_data_gpio_deinit</text>
</a>
</g>
</g>
<!-- Node1&#45;&gt;Node14 -->
<g id="edge13_Node000001_Node000014" class="edge">
<title>Node1&#45;&gt;Node14</title>
<g id="a_edge13_Node000001_Node000014"><a xlink:title=" ">
<path fill="none" stroke="#63b8ff" d="M56.85,-942.26C55.11,-987.69 54.26,-1172.86 148.75,-1271 152.55,-1274.94 156.95,-1278.27 161.71,-1281.07"/>
<polygon fill="#63b8ff" stroke="#63b8ff" points="160.01,-1284.14 170.52,-1285.45 163.12,-1277.87 160.01,-1284.14"/>
</a>
</g>
</g>
<!-- Node15 -->
<g id="Node000015" class="node">
<title>Node15</title>
<g id="a_Node000015"><a xlink:href="group__ssd1306__interface__driver.html#gacea714417628f4882e8e52a72e2667e5" target="_top" xlink:title="interface command &amp;&amp; data gpio init">
<polygon fill="white" stroke="#666666" points="287,-1262 173.5,-1262 173.5,-1230 287,-1230 287,-1262"/>
<text xml:space="preserve" text-anchor="start" x="181.5" y="-1248.5" font-family="Helvetica,sans-Serif" font-size="10.00">ssd1306_interface_spi</text>
<text xml:space="preserve" text-anchor="middle" x="230.25" y="-1236.5" font-family="Helvetica,sans-Serif" font-size="10.00">_cmd_data_gpio_init</text>
</a>
</g>
</g>
<!-- Node1&#45;&gt;Node15 -->
<g id="edge14_Node000001_Node000015" class="edge">
<title>Node1&#45;&gt;Node15</title>
<g id="a_edge14_Node000001_Node000015"><a xlink:title=" ">
<path fill="none" stroke="#63b8ff" d="M57.41,-942.41C58.15,-983.9 66.49,-1139.16 148.75,-1221 152.92,-1225.15 157.77,-1228.61 162.98,-1231.51"/>
<polygon fill="#63b8ff" stroke="#63b8ff" points="161.45,-1234.65 171.99,-1235.74 164.43,-1228.32 161.45,-1234.65"/>
</a>
</g>
</g>
<!-- Node16 -->
<g id="Node000016" class="node">
<title>Node16</title>
<g id="a_Node000016"><a xlink:href="group__ssd1306__interface__driver.html#gac88e9a3776c2da54382a3a3df0079c59" target="_top" xlink:title="interface command &amp;&amp; data gpio write">
<polygon fill="white" stroke="#666666" points="287,-1212 173.5,-1212 173.5,-1180 287,-1180 287,-1212"/>
<text xml:space="preserve" text-anchor="start" x="181.5" y="-1198.5" font-family="Helvetica,sans-Serif" font-size="10.00">ssd1306_interface_spi</text>
<text xml:space="preserve" text-anchor="middle" x="230.25" y="-1186.5" font-family="Helvetica,sans-Serif" font-size="10.00">_cmd_data_gpio_write</text>
</a>
</g>
</g>
<!-- Node1&#45;&gt;Node16 -->
<g id="edge15_Node000001_Node000016" class="edge">
<title>Node1&#45;&gt;Node16</title>
<g id="a_edge15_Node000001_Node000016"><a xlink:title=" ">
<path fill="none" stroke="#63b8ff" d="M58.2,-942.36C61.67,-979.18 78.44,-1105.06 148.75,-1171 152.98,-1174.97 157.82,-1178.3 163,-1181.11"/>
<polygon fill="#63b8ff" stroke="#63b8ff" points="161.35,-1184.21 171.9,-1185.25 164.3,-1177.86 161.35,-1184.21"/>
</a>
</g>
</g>
<!-- Node17 -->
<g id="Node000017" class="node">
<title>Node17</title>
<g id="a_Node000017"><a xlink:href="group__ssd1306__interface__driver.html#gabda3e56c74225501659a384e2372b2a1" target="_top" xlink:title="interface spi bus deinit">
<polygon fill="white" stroke="#666666" points="287,-1162 173.5,-1162 173.5,-1130 287,-1130 287,-1162"/>
<text xml:space="preserve" text-anchor="start" x="181.5" y="-1148.5" font-family="Helvetica,sans-Serif" font-size="10.00">ssd1306_interface_spi</text>
<text xml:space="preserve" text-anchor="middle" x="230.25" y="-1136.5" font-family="Helvetica,sans-Serif" font-size="10.00">_deinit</text>
</a>
</g>
</g>
<!-- Node1&#45;&gt;Node17 -->
<g id="edge16_Node000001_Node000017" class="edge">
<title>Node1&#45;&gt;Node17</title>
<g id="a_edge16_Node000001_Node000017"><a xlink:title=" ">
<path fill="none" stroke="#63b8ff" d="M59.36,-942.36C65.96,-974.06 90.19,-1070.59 148.75,-1121 153.08,-1124.72 157.95,-1127.89 163.11,-1130.59"/>
<polygon fill="#63b8ff" stroke="#63b8ff" points="161.37,-1133.65 171.93,-1134.59 164.27,-1127.27 161.37,-1133.65"/>
</a>
</g>
</g>
<!-- Node18 -->
<g id="Node000018" class="node">
<title>Node18</title>
<g id="a_Node000018"><a xlink:href="group__ssd1306__interface__driver.html#gabd0697f407f193f7545b4fef282633e7" target="_top" xlink:title="interface spi bus init">
<polygon fill="white" stroke="#666666" points="296,-1112 164.5,-1112 164.5,-1092 296,-1092 296,-1112"/>
<text xml:space="preserve" text-anchor="middle" x="230.25" y="-1098.5" font-family="Helvetica,sans-Serif" font-size="10.00">ssd1306_interface_spi_init</text>
</a>
</g>
</g>
<!-- Node1&#45;&gt;Node18 -->
<g id="edge17_Node000001_Node000018" class="edge">
<title>Node1&#45;&gt;Node18</title>
<g id="a_edge17_Node000001_Node000018"><a xlink:title=" ">
<path fill="none" stroke="#63b8ff" d="M60.5,-942.38C69.38,-969.98 97.47,-1045.67 148.75,-1083 150.54,-1084.3 152.4,-1085.51 154.32,-1086.64"/>
<polygon fill="#63b8ff" stroke="#63b8ff" points="152.49,-1089.64 163,-1090.96 155.61,-1083.37 152.49,-1089.64"/>
</a>
</g>
</g>
<!-- Node19 -->
<g id="Node000019" class="node">
<title>Node19</title>
<g id="a_Node000019"><a xlink:href="group__ssd1306__interface__driver.html#ga9066ac254075f02ad00bdfa2175eefbc" target="_top" xlink:title="interface spi bus write">
<polygon fill="white" stroke="#666666" points="287,-1074 173.5,-1074 173.5,-1042 287,-1042 287,-1074"/>
<text xml:space="preserve" text-anchor="start" x="181.5" y="-1060.5" font-family="Helvetica,sans-Serif" font-size="10.00">ssd1306_interface_spi</text>
<text xml:space="preserve" text-anchor="middle" x="230.25" y="-1048.5" font-family="Helvetica,sans-Serif" font-size="10.00">_write_cmd</text>
</a>
</g>
</g>
<!-- Node1&#45;&gt;Node19 -->
<g id="edge18_Node000001_Node000019" class="edge">
<title>Node1&#45;&gt;Node19</title>
<g id="a_edge18_Node000001_Node000019"><a xlink:title=" ">
<path fill="none" stroke="#63b8ff" d="M63.85,-942.24C77.21,-962.57 109.89,-1008.19 148.75,-1033 153.22,-1035.85 158.03,-1038.4 163.01,-1040.67"/>
<polygon fill="#63b8ff" stroke="#63b8ff" points="161.4,-1043.79 171.98,-1044.37 164.07,-1037.32 161.4,-1043.79"/>
</a>
</g>
</g>
<!-- Node20 -->
<g id="Node000020" class="node">
<title>Node20</title>
<g id="a_Node000020"><a xlink:href="group__ssd1306__base__driver.html#ga3c5208ca2b8fce8fc7bde1fc4bfa9d05" target="_top" xlink:title="set the chip iic address">
<polygon fill="white" stroke="#666666" points="287,-1024 173.5,-1024 173.5,-1004 287,-1004 287,-1024"/>
<text xml:space="preserve" text-anchor="middle" x="230.25" y="-1010.5" font-family="Helvetica,sans-Serif" font-size="10.00">ssd1306_set_addr_pin</text>
</a>
</g>
</g>
<!-- Node1&#45;&gt;Node20 -->
<g id="edge19_Node000001_Node000020" class="edge">
<title>Node1&#45;&gt;Node20</title>
<g id="a_edge19_Node000001_Node000020"><a xlink:title=" ">
<path fill="none" stroke="#63b8ff" d="M69.2,-942.34C85.83,-956.34 117.58,-981.16 148.75,-995 153.23,-996.99 157.94,-998.78 162.75,-1000.4"/>
<polygon fill="#63b8ff" stroke="#63b8ff" points="161.33,-1003.63 171.92,-1003.22 163.39,-996.94 161.33,-1003.63"/>
</a>
</g>
</g>
<!-- Node21 -->
<g id="Node000021" class="node">
<title>Node21</title>
<g id="a_Node000021"><a xlink:href="group__ssd1306__base__driver.html#ga6dd49e731a0256e5556c11992bf065ff" target="_top" xlink:title="enable or disable the charge pump">
<polygon fill="white" stroke="#666666" points="297.88,-986 162.62,-986 162.62,-966 297.88,-966 297.88,-986"/>
<text xml:space="preserve" text-anchor="middle" x="230.25" y="-972.5" font-family="Helvetica,sans-Serif" font-size="10.00">ssd1306_set_charge_pump</text>
</a>
</g>
</g>
<!-- Node1&#45;&gt;Node21 -->
<g id="edge20_Node000001_Node000021" class="edge">
<title>Node1&#45;&gt;Node21</title>
<g id="a_edge20_Node000001_Node000021"><a xlink:title=" ">
<path fill="none" stroke="#63b8ff" d="M94.2,-942.39C110.83,-947 130.74,-952.41 148.75,-957 156.41,-958.95 164.5,-960.94 172.48,-962.87"/>
<polygon fill="#63b8ff" stroke="#63b8ff" points="171.62,-966.26 182.16,-965.18 173.24,-959.45 171.62,-966.26"/>
</a>
</g>
</g>
<!-- Node22 -->
<g id="Node000022" class="node">
<title>Node22</title>
<g id="a_Node000022"><a xlink:href="group__ssd1306__base__driver.html#gace80f71defecb1723ae1d5c53ac7c7c5" target="_top" xlink:title="set the column address range">
<polygon fill="white" stroke="#666666" points="284.38,-948 176.12,-948 176.12,-916 284.38,-916 284.38,-948"/>
<text xml:space="preserve" text-anchor="start" x="184.12" y="-934.5" font-family="Helvetica,sans-Serif" font-size="10.00">ssd1306_set_column</text>
<text xml:space="preserve" text-anchor="middle" x="230.25" y="-922.5" font-family="Helvetica,sans-Serif" font-size="10.00">_address_range</text>
</a>
</g>
</g>
<!-- Node1&#45;&gt;Node22 -->
<g id="edge21_Node000001_Node000022" class="edge">
<title>Node1&#45;&gt;Node22</title>
<g id="a_edge21_Node000001_Node000022"><a xlink:title=" ">
<path fill="none" stroke="#63b8ff" d="M113.18,-932C129.5,-932 147.49,-932 164.33,-932"/>
<polygon fill="#63b8ff" stroke="#63b8ff" points="164.26,-935.5 174.26,-932 164.26,-928.5 164.26,-935.5"/>
</a>
</g>
</g>
<!-- Node23 -->
<g id="Node000023" class="node">
<title>Node23</title>
<g id="a_Node000023"><a xlink:href="group__ssd1306__base__driver.html#gaaf3f80e42b6b20ef6794aae8d404b79c" target="_top" xlink:title="set the hardware com pins">
<polygon fill="white" stroke="#666666" points="289.62,-898 170.88,-898 170.88,-866 289.62,-866 289.62,-898"/>
<text xml:space="preserve" text-anchor="start" x="178.88" y="-884.5" font-family="Helvetica,sans-Serif" font-size="10.00">ssd1306_set_com_pins</text>
<text xml:space="preserve" text-anchor="middle" x="230.25" y="-872.5" font-family="Helvetica,sans-Serif" font-size="10.00">_hardware_conf</text>
</a>
</g>
</g>
<!-- Node1&#45;&gt;Node23 -->
<g id="edge22_Node000001_Node000023" class="edge">
<title>Node1&#45;&gt;Node23</title>
<g id="a_edge22_Node000001_Node000023"><a xlink:title=" ">
<path fill="none" stroke="#63b8ff" d="M93.41,-921.52C113.21,-915.76 138.41,-908.42 161.73,-901.64"/>
<polygon fill="#63b8ff" stroke="#63b8ff" points="162.55,-905.05 171.18,-898.89 160.6,-898.33 162.55,-905.05"/>
</a>
</g>
</g>
<!-- Node24 -->
<g id="Node000024" class="node">
<title>Node24</title>
<g id="a_Node000024"><a xlink:href="group__ssd1306__base__driver.html#ga04af4a1d48cc69445e34ca598c34b239" target="_top" xlink:title="set the display contrast">
<polygon fill="white" stroke="#666666" points="286.25,-848 174.25,-848 174.25,-828 286.25,-828 286.25,-848"/>
<text xml:space="preserve" text-anchor="middle" x="230.25" y="-834.5" font-family="Helvetica,sans-Serif" font-size="10.00">ssd1306_set_contrast</text>
</a>
</g>
</g>
<!-- Node1&#45;&gt;Node24 -->
<g id="edge23_Node000001_Node000024" class="edge">
<title>Node1&#45;&gt;Node24</title>
<g id="a_edge23_Node000001_Node000024"><a xlink:title=" ">
<path fill="none" stroke="#63b8ff" d="M66.96,-921.51C82.51,-905.17 114.9,-873.75 148.75,-857 153.29,-854.75 158.1,-852.77 163.04,-851.01"/>
<polygon fill="#63b8ff" stroke="#63b8ff" points="164.05,-854.36 172.51,-847.98 161.92,-847.69 164.05,-854.36"/>
</a>
</g>
</g>
<!-- Node25 -->
<g id="Node000025" class="node">
<title>Node25</title>
<g id="a_Node000025"><a xlink:href="group__ssd1306__base__driver.html#gac47023d3af6a0c7ebe9b879b8968e727" target="_top" xlink:title="set the deselect level">
<polygon fill="white" stroke="#666666" points="287,-810 173.5,-810 173.5,-778 287,-778 287,-810"/>
<text xml:space="preserve" text-anchor="start" x="181.5" y="-796.5" font-family="Helvetica,sans-Serif" font-size="10.00">ssd1306_set_deselect</text>
<text xml:space="preserve" text-anchor="middle" x="230.25" y="-784.5" font-family="Helvetica,sans-Serif" font-size="10.00">_level</text>
</a>
</g>
</g>
<!-- Node1&#45;&gt;Node25 -->
<g id="edge24_Node000001_Node000025" class="edge">
<title>Node1&#45;&gt;Node25</title>
<g id="a_edge24_Node000001_Node000025"><a xlink:title=" ">
<path fill="none" stroke="#63b8ff" d="M62.95,-921.55C75.36,-899.3 107.41,-847.04 148.75,-819 153.14,-816.02 157.89,-813.39 162.83,-811.06"/>
<polygon fill="#63b8ff" stroke="#63b8ff" points="163.9,-814.41 171.75,-807.29 161.18,-807.96 163.9,-814.41"/>
</a>
</g>
</g>
<!-- Node26 -->
<g id="Node000026" class="node">
<title>Node26</title>
<g id="a_Node000026"><a xlink:href="group__ssd1306__base__driver.html#ga8a9ee843e339805b16c571c8ac94f9ec" target="_top" xlink:title="enable or disable the display">
<polygon fill="white" stroke="#666666" points="284,-760 176.5,-760 176.5,-740 284,-740 284,-760"/>
<text xml:space="preserve" text-anchor="middle" x="230.25" y="-746.5" font-family="Helvetica,sans-Serif" font-size="10.00">ssd1306_set_display</text>
</a>
</g>
</g>
<!-- Node1&#45;&gt;Node26 -->
<g id="edge25_Node000001_Node000026" class="edge">
<title>Node1&#45;&gt;Node26</title>
<g id="a_edge25_Node000001_Node000026"><a xlink:title=" ">
<path fill="none" stroke="#63b8ff" d="M60.01,-921.66C67.96,-892.63 94.6,-809.81 148.75,-769 153.89,-765.12 159.7,-762.02 165.79,-759.54"/>
<polygon fill="#63b8ff" stroke="#63b8ff" points="166.49,-763.01 174.8,-756.43 164.2,-756.39 166.49,-763.01"/>
</a>
</g>
</g>
<!-- Node27 -->
<g id="Node000027" class="node">
<title>Node27</title>
<g id="a_Node000027"><a xlink:href="group__ssd1306__base__driver.html#gaa588c8dc16bd6bfc84fa242910cf7252" target="_top" xlink:title="set the display clock">
<polygon fill="white" stroke="#666666" points="284,-722 176.5,-722 176.5,-690 284,-690 284,-722"/>
<text xml:space="preserve" text-anchor="start" x="184.5" y="-708.5" font-family="Helvetica,sans-Serif" font-size="10.00">ssd1306_set_display</text>
<text xml:space="preserve" text-anchor="middle" x="230.25" y="-696.5" font-family="Helvetica,sans-Serif" font-size="10.00">_clock</text>
</a>
</g>
</g>
<!-- Node1&#45;&gt;Node27 -->
<g id="edge26_Node000001_Node000027" class="edge">
<title>Node1&#45;&gt;Node27</title>
<g id="a_edge26_Node000001_Node000027"><a xlink:title=" ">
<path fill="none" stroke="#63b8ff" d="M58.98,-921.93C64.71,-889.26 87.22,-785.25 148.75,-731 153.74,-726.6 159.5,-722.97 165.6,-719.98"/>
<polygon fill="#63b8ff" stroke="#63b8ff" points="166.87,-723.25 174.71,-716.12 164.13,-716.8 166.87,-723.25"/>
</a>
</g>
</g>
<!-- Node28 -->
<g id="Node000028" class="node">
<title>Node28</title>
<g id="a_Node000028"><a xlink:href="group__ssd1306__base__driver.html#ga8231cf2d7d5e244df0a64c65d5db9aca" target="_top" xlink:title="set the display mode">
<polygon fill="white" stroke="#666666" points="298.62,-672 161.88,-672 161.88,-652 298.62,-652 298.62,-672"/>
<text xml:space="preserve" text-anchor="middle" x="230.25" y="-658.5" font-family="Helvetica,sans-Serif" font-size="10.00">ssd1306_set_display_mode</text>
</a>
</g>
</g>
<!-- Node1&#45;&gt;Node28 -->
<g id="edge27_Node000001_Node000028" class="edge">
<title>Node1&#45;&gt;Node28</title>
<g id="a_edge27_Node000001_Node000028"><a xlink:title=" ">
<path fill="none" stroke="#63b8ff" d="M57.81,-921.75C60,-883.57 73.02,-748.32 148.75,-681 149.84,-680.03 150.96,-679.11 152.12,-678.24"/>
<polygon fill="#63b8ff" stroke="#63b8ff" points="153.68,-681.39 160.35,-673.16 150,-675.44 153.68,-681.39"/>
</a>
</g>
</g>
<!-- Node29 -->
<g id="Node000029" class="node">
<title>Node29</title>
<g id="a_Node000029"><a xlink:href="group__ssd1306__base__driver.html#ga86a554181ce9cd671b255443f3076666" target="_top" xlink:title="set the display offset">
<polygon fill="white" stroke="#666666" points="284,-634 176.5,-634 176.5,-602 284,-602 284,-634"/>
<text xml:space="preserve" text-anchor="start" x="184.5" y="-620.5" font-family="Helvetica,sans-Serif" font-size="10.00">ssd1306_set_display</text>
<text xml:space="preserve" text-anchor="middle" x="230.25" y="-608.5" font-family="Helvetica,sans-Serif" font-size="10.00">_offset</text>
</a>
</g>
</g>
<!-- Node1&#45;&gt;Node29 -->
<g id="edge28_Node000001_Node000029" class="edge">
<title>Node1&#45;&gt;Node29</title>
<g id="a_edge28_Node000001_Node000029"><a xlink:title=" ">
<path fill="none" stroke="#63b8ff" d="M57.41,-921.59C58.15,-880.1 66.49,-724.84 148.75,-643 153.72,-638.06 159.65,-634.09 166,-630.9"/>
<polygon fill="#63b8ff" stroke="#63b8ff" points="167.06,-634.26 174.87,-627.11 164.3,-627.82 167.06,-634.26"/>
</a>
</g>
</g>
<!-- Node30 -->
<g id="Node000030" class="node">
<title>Node30</title>
<g id="a_Node000030"><a xlink:href="group__ssd1306__base__driver.html#ga9840154b11ab91249174b79fde6899bd" target="_top" xlink:title="set the display start line">
<polygon fill="white" stroke="#666666" points="284,-584 176.5,-584 176.5,-552 284,-552 284,-584"/>
<text xml:space="preserve" text-anchor="start" x="184.5" y="-570.5" font-family="Helvetica,sans-Serif" font-size="10.00">ssd1306_set_display</text>
<text xml:space="preserve" text-anchor="middle" x="230.25" y="-558.5" font-family="Helvetica,sans-Serif" font-size="10.00">_start_line</text>
</a>
</g>
</g>
<!-- Node1&#45;&gt;Node30 -->
<g id="edge29_Node000001_Node000030" class="edge">
<title>Node1&#45;&gt;Node30</title>
<g id="a_edge29_Node000001_Node000030"><a xlink:title=" ">
<path fill="none" stroke="#63b8ff" d="M56.85,-921.74C55.11,-876.31 54.26,-691.14 148.75,-593 153.61,-587.95 159.47,-583.91 165.79,-580.69"/>
<polygon fill="#63b8ff" stroke="#63b8ff" points="166.84,-584.05 174.62,-576.87 164.06,-577.63 166.84,-584.05"/>
</a>
</g>
</g>
<!-- Node31 -->
<g id="Node000031" class="node">
<title>Node31</title>
<g id="a_Node000031"><a xlink:href="group__ssd1306__base__driver.html#gae0a03db84a228eb20b9d3ba0c6624f57" target="_top" xlink:title="enable or disable the entire display">
<polygon fill="white" stroke="#666666" points="280.62,-534 179.88,-534 179.88,-502 280.62,-502 280.62,-534"/>
<text xml:space="preserve" text-anchor="start" x="187.88" y="-520.5" font-family="Helvetica,sans-Serif" font-size="10.00">ssd1306_set_entire</text>
<text xml:space="preserve" text-anchor="middle" x="230.25" y="-508.5" font-family="Helvetica,sans-Serif" font-size="10.00">_display</text>
</a>
</g>
</g>
<!-- Node1&#45;&gt;Node31 -->
<g id="edge30_Node000001_Node000031" class="edge">
<title>Node1&#45;&gt;Node31</title>
<g id="a_edge30_Node000001_Node000031"><a xlink:title=" ">
<path fill="none" stroke="#63b8ff" d="M58.44,-921.51C64.34,-865.37 94.71,-600.98 148.75,-543 154.37,-536.96 161.43,-532.38 169,-528.89"/>
<polygon fill="#63b8ff" stroke="#63b8ff" points="170.11,-532.21 178.16,-525.33 167.58,-525.69 170.11,-532.21"/>
</a>
</g>
</g>
<!-- Node32 -->
<g id="Node000032" class="node">
<title>Node32</title>
<g id="a_Node000032"><a xlink:href="group__ssd1306__base__driver.html#gabd899e41e08e8ce70e14b3718e9cfa2a" target="_top" xlink:title="set the fade blinking mode">
<polygon fill="white" stroke="#666666" points="311.75,-484 148.75,-484 148.75,-464 311.75,-464 311.75,-484"/>
<text xml:space="preserve" text-anchor="middle" x="230.25" y="-470.5" font-family="Helvetica,sans-Serif" font-size="10.00">ssd1306_set_fade_blinking_mode</text>
</a>
</g>
</g>
<!-- Node1&#45;&gt;Node32 -->
<g id="edge31_Node000001_Node000032" class="edge">
<title>Node1&#45;&gt;Node32</title>
<g id="a_edge31_Node000001_Node000032"><a xlink:title=" ">
<path fill="none" stroke="#63b8ff" d="M58.05,-921.71C62.2,-861.7 86.16,-557.28 148.75,-493 149.37,-492.36 150.01,-491.75 150.66,-491.15"/>
<polygon fill="#63b8ff" stroke="#63b8ff" points="152.68,-494 158.72,-485.3 148.57,-488.34 152.68,-494"/>
</a>
</g>
</g>
<!-- Node33 -->
<g id="Node000033" class="node">
<title>Node33</title>
<g id="a_Node000033"><a xlink:href="group__ssd1306__base__driver.html#gaa5160b65db212aa7150aa3a00cd3f47c" target="_top" xlink:title="set the high column start address">
<polygon fill="white" stroke="#666666" points="296,-446 164.5,-446 164.5,-414 296,-414 296,-446"/>
<text xml:space="preserve" text-anchor="start" x="172.5" y="-432.5" font-family="Helvetica,sans-Serif" font-size="10.00">ssd1306_set_high_column</text>
<text xml:space="preserve" text-anchor="middle" x="230.25" y="-420.5" font-family="Helvetica,sans-Serif" font-size="10.00">_start_address</text>
</a>
</g>
</g>
<!-- Node1&#45;&gt;Node33 -->
<g id="edge32_Node000001_Node000033" class="edge">
<title>Node1&#45;&gt;Node33</title>
<g id="a_edge32_Node000001_Node000033"><a xlink:title=" ">
<path fill="none" stroke="#63b8ff" d="M57.94,-921.73C61.58,-859 83.7,-527.76 148.75,-455 150.67,-452.85 152.77,-450.89 155.01,-449.09"/>
<polygon fill="#63b8ff" stroke="#63b8ff" points="156.62,-452.22 163.02,-443.78 152.75,-446.39 156.62,-452.22"/>
</a>
</g>
</g>
<!-- Node34 -->
<g id="Node000034" class="node">
<title>Node34</title>
<g id="a_Node000034"><a xlink:href="group__ssd1306__base__driver.html#gaf09a77d1992afb51a10d0dfa16ef7faf" target="_top" xlink:title="set the chip interface">
<polygon fill="white" stroke="#666666" points="287.38,-396 173.12,-396 173.12,-376 287.38,-376 287.38,-396"/>
<text xml:space="preserve" text-anchor="middle" x="230.25" y="-382.5" font-family="Helvetica,sans-Serif" font-size="10.00">ssd1306_set_interface</text>
</a>
</g>
</g>
<!-- Node1&#45;&gt;Node34 -->
<g id="edge33_Node000001_Node000034" class="edge">
<title>Node1&#45;&gt;Node34</title>
<g id="a_edge33_Node000001_Node000034"><a xlink:title=" ">
<path fill="none" stroke="#63b8ff" d="M57.66,-921.91C59.73,-855.71 74.59,-483.76 148.75,-405 152.71,-400.8 157.41,-397.44 162.53,-394.78"/>
<polygon fill="#63b8ff" stroke="#63b8ff" points="163.53,-398.15 171.38,-391.05 160.81,-391.7 163.53,-398.15"/>
</a>
</g>
</g>
<!-- Node35 -->
<g id="Node000035" class="node">
<title>Node35</title>
<g id="a_Node000035"><a xlink:href="group__ssd1306__base__driver.html#gad61d0d69d8da5b83515ce48d971c2559" target="_top" xlink:title="set the low column start address">
<polygon fill="white" stroke="#666666" points="294.5,-358 166,-358 166,-326 294.5,-326 294.5,-358"/>
<text xml:space="preserve" text-anchor="start" x="174" y="-344.5" font-family="Helvetica,sans-Serif" font-size="10.00">ssd1306_set_low_column</text>
<text xml:space="preserve" text-anchor="middle" x="230.25" y="-332.5" font-family="Helvetica,sans-Serif" font-size="10.00">_start_address</text>
</a>
</g>
</g>
<!-- Node1&#45;&gt;Node35 -->
<g id="edge34_Node000001_Node000035" class="edge">
<title>Node1&#45;&gt;Node35</title>
<g id="a_edge34_Node000001_Node000035"><a xlink:title=" ">
<path fill="none" stroke="#63b8ff" d="M57.61,-921.7C59.36,-852.45 72.69,-454.6 148.75,-367 150.95,-364.46 153.41,-362.18 156.06,-360.12"/>
<polygon fill="#63b8ff" stroke="#63b8ff" points="157.86,-363.12 164.41,-354.8 154.1,-357.22 157.86,-363.12"/>
</a>
</g>
</g>
<!-- Node36 -->
<g id="Node000036" class="node">
<title>Node36</title>
<g id="a_Node000036"><a xlink:href="group__ssd1306__base__driver.html#ga285a77dab43317a3885e669f7716eaba" target="_top" xlink:title="set the memory addressing mode">
<polygon fill="white" stroke="#666666" points="286.25,-308 174.25,-308 174.25,-276 286.25,-276 286.25,-308"/>
<text xml:space="preserve" text-anchor="start" x="182.25" y="-294.5" font-family="Helvetica,sans-Serif" font-size="10.00">ssd1306_set_memory</text>
<text xml:space="preserve" text-anchor="middle" x="230.25" y="-282.5" font-family="Helvetica,sans-Serif" font-size="10.00">_addressing_mode</text>
</a>
</g>
</g>
<!-- Node1&#45;&gt;Node36 -->
<g id="edge35_Node000001_Node000036" class="edge">
<title>Node1&#45;&gt;Node36</title>
<g id="a_edge35_Node000001_Node000036"><a xlink:title=" ">
<path fill="none" stroke="#63b8ff" d="M57.46,-921.75C58.24,-849.18 66.39,-413.1 148.75,-317 153.02,-312.02 158.27,-308.01 164.01,-304.8"/>
<polygon fill="#63b8ff" stroke="#63b8ff" points="165.12,-308.14 172.7,-300.74 162.16,-301.8 165.12,-308.14"/>
</a>
</g>
</g>
<!-- Node37 -->
<g id="Node000037" class="node">
<title>Node37</title>
<g id="a_Node000037"><a xlink:href="group__ssd1306__base__driver.html#ga94fbad6bc91e085ca4ff5cb5443b9411" target="_top" xlink:title="set the multiplex ratio">
<polygon fill="white" stroke="#666666" points="288.12,-258 172.38,-258 172.38,-226 288.12,-226 288.12,-258"/>
<text xml:space="preserve" text-anchor="start" x="180.38" y="-244.5" font-family="Helvetica,sans-Serif" font-size="10.00">ssd1306_set_multiplex</text>
<text xml:space="preserve" text-anchor="middle" x="230.25" y="-232.5" font-family="Helvetica,sans-Serif" font-size="10.00">_ratio</text>
</a>
</g>
</g>
<!-- Node1&#45;&gt;Node37 -->
<g id="edge36_Node000001_Node000037" class="edge">
<title>Node1&#45;&gt;Node37</title>
<g id="a_edge36_Node000001_Node000037"><a xlink:title=" ">
<path fill="none" stroke="#63b8ff" d="M57.33,-921.9C57.21,-846.53 60.02,-371.68 148.75,-267 152.5,-262.58 157.01,-258.93 161.97,-255.91"/>
<polygon fill="#63b8ff" stroke="#63b8ff" points="163.26,-259.18 170.6,-251.55 160.1,-252.93 163.26,-259.18"/>
</a>
</g>
</g>
<!-- Node38 -->
<g id="Node000038" class="node">
<title>Node38</title>
<g id="a_Node000038"><a xlink:href="group__ssd1306__base__driver.html#ga0b6186c60b72c021908e3284800a1c79" target="_top" xlink:title="set the page address range">
<polygon fill="white" stroke="#666666" points="299,-208 161.5,-208 161.5,-176 299,-176 299,-208"/>
<text xml:space="preserve" text-anchor="start" x="169.5" y="-194.5" font-family="Helvetica,sans-Serif" font-size="10.00">ssd1306_set_page_address</text>
<text xml:space="preserve" text-anchor="middle" x="230.25" y="-182.5" font-family="Helvetica,sans-Serif" font-size="10.00">_range</text>
</a>
</g>
</g>
<!-- Node1&#45;&gt;Node38 -->
<g id="edge37_Node000001_Node000038" class="edge">
<title>Node1&#45;&gt;Node38</title>
<g id="a_edge37_Node000001_Node000038"><a xlink:title=" ">
<path fill="none" stroke="#63b8ff" d="M57.22,-921.66C56.26,-842.32 53.8,-330.09 148.75,-217 149.87,-215.67 151.05,-214.41 152.3,-213.21"/>
<polygon fill="#63b8ff" stroke="#63b8ff" points="154.35,-216.05 160.13,-207.17 150.07,-210.51 154.35,-216.05"/>
</a>
</g>
</g>
<!-- Node39 -->
<g id="Node000039" class="node">
<title>Node39</title>
<g id="a_Node000039"><a xlink:href="group__ssd1306__base__driver.html#ga1fd4ade307b8ef8cac61d96ebe821456" target="_top" xlink:title="set the pre charge period">
<polygon fill="white" stroke="#666666" points="290,-158 170.5,-158 170.5,-126 290,-126 290,-158"/>
<text xml:space="preserve" text-anchor="start" x="178.5" y="-144.5" font-family="Helvetica,sans-Serif" font-size="10.00">ssd1306_set_precharge</text>
<text xml:space="preserve" text-anchor="middle" x="230.25" y="-132.5" font-family="Helvetica,sans-Serif" font-size="10.00">_period</text>
</a>
</g>
</g>
<!-- Node1&#45;&gt;Node39 -->
<g id="edge38_Node000001_Node000039" class="edge">
<title>Node1&#45;&gt;Node39</title>
<g id="a_edge38_Node000001_Node000039"><a xlink:title=" ">
<path fill="none" stroke="#63b8ff" d="M57.94,-921.55C62.76,-834.25 97.94,-228.03 148.75,-167 152.05,-163.03 155.97,-159.69 160.28,-156.86"/>
<polygon fill="#63b8ff" stroke="#63b8ff" points="161.77,-160.04 168.89,-152.2 158.43,-153.88 161.77,-160.04"/>
</a>
</g>
</g>
<!-- Node40 -->
<g id="Node000040" class="node">
<title>Node40</title>
<g id="a_Node000040"><a xlink:href="group__ssd1306__base__driver.html#ga1c48fc249314c05eb74774f712afa050" target="_top" xlink:title="set the scan direction">
<polygon fill="white" stroke="#666666" points="300.12,-108 160.38,-108 160.38,-88 300.12,-88 300.12,-108"/>
<text xml:space="preserve" text-anchor="middle" x="230.25" y="-94.5" font-family="Helvetica,sans-Serif" font-size="10.00">ssd1306_set_scan_direction</text>
</a>
</g>
</g>
<!-- Node1&#45;&gt;Node40 -->
<g id="edge39_Node000001_Node000040" class="edge">
<title>Node1&#45;&gt;Node40</title>
<g id="a_edge39_Node000001_Node000040"><a xlink:title=" ">
<path fill="none" stroke="#63b8ff" d="M57.82,-921.7C61.81,-831.7 92.49,-180.46 148.75,-117 149.46,-116.2 150.19,-115.43 150.95,-114.69"/>
<polygon fill="#63b8ff" stroke="#63b8ff" points="152.91,-117.61 158.74,-108.76 148.66,-112.04 152.91,-117.61"/>
</a>
</g>
</g>
<!-- Node41 -->
<g id="Node000041" class="node">
<title>Node41</title>
<g id="a_Node000041"><a xlink:href="group__ssd1306__base__driver.html#gaa897931b4f2650d9fcf4edea9dadea48" target="_top" xlink:title="set the segment remap">
<polygon fill="white" stroke="#666666" points="287.38,-70 173.12,-70 173.12,-38 287.38,-38 287.38,-70"/>
<text xml:space="preserve" text-anchor="start" x="181.12" y="-56.5" font-family="Helvetica,sans-Serif" font-size="10.00">ssd1306_set_segment</text>
<text xml:space="preserve" text-anchor="middle" x="230.25" y="-44.5" font-family="Helvetica,sans-Serif" font-size="10.00">_remap</text>
</a>
</g>
</g>
<!-- Node1&#45;&gt;Node41 -->
<g id="edge40_Node000001_Node000041" class="edge">
<title>Node1&#45;&gt;Node41</title>
<g id="a_edge40_Node000001_Node000041"><a xlink:title=" ">
<path fill="none" stroke="#63b8ff" d="M57.81,-921.55C61.73,-828.74 92.35,-147.59 148.75,-79 152.7,-74.2 157.56,-70.3 162.91,-67.14"/>
<polygon fill="#63b8ff" stroke="#63b8ff" points="164.19,-70.41 171.64,-62.87 161.12,-64.12 164.19,-70.41"/>
</a>
</g>
</g>
<!-- Node42 -->
<g id="Node000042" class="node">
<title>Node42</title>
<g id="a_Node000042"><a xlink:href="group__ssd1306__base__driver.html#ga1b1cda97c2bbcf0de6e84d6a499be103" target="_top" xlink:title="set the display zoom in">
<polygon fill="white" stroke="#666666" points="287,-20 173.5,-20 173.5,0 287,0 287,-20"/>
<text xml:space="preserve" text-anchor="middle" x="230.25" y="-6.5" font-family="Helvetica,sans-Serif" font-size="10.00">ssd1306_set_zoom_in</text>
</a>
</g>
</g>
<!-- Node1&#45;&gt;Node42 -->
<g id="edge41_Node000001_Node000042" class="edge">
<title>Node1&#45;&gt;Node42</title>
<g id="a_edge41_Node000001_Node000042"><a xlink:title=" ">
<path fill="none" stroke="#63b8ff" d="M57.71,-921.52C60.86,-825.45 86.67,-99.79 148.75,-29 152.67,-24.53 157.44,-21 162.66,-18.24"/>
<polygon fill="#63b8ff" stroke="#63b8ff" points="163.93,-21.5 171.79,-14.4 161.22,-15.05 163.93,-21.5"/>
</a>
</g>
</g>
</g>
</svg>
