<?xml version="1.0" encoding="UTF-8" standalone="no"?>
<!DOCTYPE svg PUBLIC "-//W3C//DTD SVG 1.1//EN"
 "http://www.w3.org/Graphics/SVG/1.1/DTD/svg11.dtd">
<!-- Generated by graphviz version 13.1.0 (20250701.0955)
 -->
<!-- Title: ssd1306_basic_string Pages: 1 -->
<svg width="269pt" height="78pt"
 viewBox="0.00 0.00 269.00 78.00" xmlns="http://www.w3.org/2000/svg" xmlns:xlink="http://www.w3.org/1999/xlink">
<g id="graph0" class="graph" transform="scale(1 1) rotate(0) translate(4 74)">
<title>ssd1306_basic_string</title>
<!-- Node1 -->
<g id="Node000001" class="node">
<title>Node1</title>
<g id="a_Node000001"><a xlink:title="basic example draw a string">
<polygon fill="#999999" stroke="#666666" points="110.5,-48 0,-48 0,-28 110.5,-28 110.5,-48"/>
<text xml:space="preserve" text-anchor="middle" x="55.25" y="-34.5" font-family="Helvetica,sans-Serif" font-size="10.00">ssd1306_basic_string</text>
</a>
</g>
</g>
<!-- Node2 -->
<g id="Node000002" class="node">
<title>Node2</title>
<g id="a_Node000002"><a xlink:href="group__ssd1306__base__driver.html#gad13acd1205c86a2c63ac8b22df33dba1" target="_top" xlink:title="update the gram data">
<polygon fill="white" stroke="#666666" points="260.75,-70 146.5,-70 146.5,-50 260.75,-50 260.75,-70"/>
<text xml:space="preserve" text-anchor="middle" x="203.62" y="-56.5" font-family="Helvetica,sans-Serif" font-size="10.00">ssd1306_gram_update</text>
</a>
</g>
</g>
<!-- Node1&#45;&gt;Node2 -->
<g id="edge1_Node000001_Node000002" class="edge">
<title>Node1&#45;&gt;Node2</title>
<g id="a_edge1_Node000001_Node000002"><a xlink:title=" ">
<path fill="none" stroke="#63b8ff" d="M110.75,-46.19C118.6,-47.37 126.75,-48.6 134.82,-49.81"/>
<polygon fill="#63b8ff" stroke="#63b8ff" points="134.21,-53.26 144.62,-51.28 135.25,-46.33 134.21,-53.26"/>
</a>
</g>
</g>
<!-- Node3 -->
<g id="Node000003" class="node">
<title>Node3</title>
<g id="a_Node000003"><a xlink:href="group__ssd1306__base__driver.html#gab8ecebeae67b19ff6f9e097f4aafb81b" target="_top" xlink:title="draw a string in the gram">
<polygon fill="white" stroke="#666666" points="256.62,-32 150.62,-32 150.62,0 256.62,0 256.62,-32"/>
<text xml:space="preserve" text-anchor="start" x="158.62" y="-18.5" font-family="Helvetica,sans-Serif" font-size="10.00">ssd1306_gram_write</text>
<text xml:space="preserve" text-anchor="middle" x="203.62" y="-6.5" font-family="Helvetica,sans-Serif" font-size="10.00">_string</text>
</a>
</g>
</g>
<!-- Node1&#45;&gt;Node3 -->
<g id="edge2_Node000001_Node000003" class="edge">
<title>Node1&#45;&gt;Node3</title>
<g id="a_edge2_Node000001_Node000003"><a xlink:title=" ">
<path fill="none" stroke="#63b8ff" d="M110.75,-29.81C120,-28.42 129.67,-26.96 139.13,-25.54"/>
<polygon fill="#63b8ff" stroke="#63b8ff" points="139.64,-29.01 149.01,-24.06 138.6,-22.08 139.64,-29.01"/>
</a>
</g>
</g>
</g>
</svg>
