<?xml version="1.0" encoding="UTF-8" standalone="no"?>
<!DOCTYPE svg PUBLIC "-//W3C//DTD SVG 1.1//EN"
 "http://www.w3.org/Graphics/SVG/1.1/DTD/svg11.dtd">
<!-- Generated by graphviz version 13.1.0 (20250701.0955)
 -->
<!-- Title: ssd1306_advance_picture Pages: 1 -->
<svg width="314pt" height="66pt"
 viewBox="0.00 0.00 314.00 66.00" xmlns="http://www.w3.org/2000/svg" xmlns:xlink="http://www.w3.org/1999/xlink">
<g id="graph0" class="graph" transform="scale(1 1) rotate(0) translate(4 62)">
<title>ssd1306_advance_picture</title>
<!-- Node1 -->
<g id="Node000001" class="node">
<title>Node1</title>
<g id="a_Node000001"><a xlink:title="advance example draw a picture">
<polygon fill="#999999" stroke="#666666" points="129.25,-39 0,-39 0,-19 129.25,-19 129.25,-39"/>
<text xml:space="preserve" text-anchor="middle" x="64.62" y="-25.5" font-family="Helvetica,sans-Serif" font-size="10.00">ssd1306_advance_picture</text>
</a>
</g>
</g>
<!-- Node2 -->
<g id="Node000002" class="node">
<title>Node2</title>
<g id="a_Node000002"><a xlink:href="group__ssd1306__base__driver.html#ga4c12993f9009017f3c6b58f2c98dda75" target="_top" xlink:title="draw a picture in the gram">
<polygon fill="white" stroke="#666666" points="305.75,-58 165.25,-58 165.25,-38 305.75,-38 305.75,-58"/>
<text xml:space="preserve" text-anchor="middle" x="235.5" y="-44.5" font-family="Helvetica,sans-Serif" font-size="10.00">ssd1306_gram_draw_picture</text>
</a>
</g>
</g>
<!-- Node1&#45;&gt;Node2 -->
<g id="edge1_Node000001_Node000002" class="edge">
<title>Node1&#45;&gt;Node2</title>
<g id="a_edge1_Node000001_Node000002"><a xlink:title=" ">
<path fill="none" stroke="#63b8ff" d="M129.47,-36.18C137.34,-37.07 145.47,-37.98 153.55,-38.89"/>
<polygon fill="#63b8ff" stroke="#63b8ff" points="153.09,-42.36 163.42,-40 153.87,-35.41 153.09,-42.36"/>
</a>
</g>
</g>
<!-- Node3 -->
<g id="Node000003" class="node">
<title>Node3</title>
<g id="a_Node000003"><a xlink:href="group__ssd1306__base__driver.html#gad13acd1205c86a2c63ac8b22df33dba1" target="_top" xlink:title="update the gram data">
<polygon fill="white" stroke="#666666" points="292.62,-20 178.38,-20 178.38,0 292.62,0 292.62,-20"/>
<text xml:space="preserve" text-anchor="middle" x="235.5" y="-6.5" font-family="Helvetica,sans-Serif" font-size="10.00">ssd1306_gram_update</text>
</a>
</g>
</g>
<!-- Node1&#45;&gt;Node3 -->
<g id="edge2_Node000001_Node000003" class="edge">
<title>Node1&#45;&gt;Node3</title>
<g id="a_edge2_Node000001_Node000003"><a xlink:title=" ">
<path fill="none" stroke="#63b8ff" d="M129.47,-21.82C141.7,-20.44 154.54,-19 166.88,-17.61"/>
<polygon fill="#63b8ff" stroke="#63b8ff" points="167,-21.12 176.54,-16.52 166.21,-14.16 167,-21.12"/>
</a>
</g>
</g>
</g>
</svg>
