<?xml version="1.0" encoding="UTF-8" standalone="no"?>
<!DOCTYPE svg PUBLIC "-//W3C//DTD SVG 1.1//EN"
 "http://www.w3.org/Graphics/SVG/1.1/DTD/svg11.dtd">
<!-- Generated by graphviz version 13.1.0 (20250701.0955)
 -->
<!-- Title: ssd1306_advance_string Pages: 1 -->
<svg width="282pt" height="78pt"
 viewBox="0.00 0.00 282.00 78.00" xmlns="http://www.w3.org/2000/svg" xmlns:xlink="http://www.w3.org/1999/xlink">
<g id="graph0" class="graph" transform="scale(1 1) rotate(0) translate(4 74)">
<title>ssd1306_advance_string</title>
<!-- Node1 -->
<g id="Node000001" class="node">
<title>Node1</title>
<g id="a_Node000001"><a xlink:title="advance example draw a string">
<polygon fill="#999999" stroke="#666666" points="124,-48 0,-48 0,-28 124,-28 124,-48"/>
<text xml:space="preserve" text-anchor="middle" x="62" y="-34.5" font-family="Helvetica,sans-Serif" font-size="10.00">ssd1306_advance_string</text>
</a>
</g>
</g>
<!-- Node2 -->
<g id="Node000002" class="node">
<title>Node2</title>
<g id="a_Node000002"><a xlink:href="group__ssd1306__base__driver.html#gad13acd1205c86a2c63ac8b22df33dba1" target="_top" xlink:title="update the gram data">
<polygon fill="white" stroke="#666666" points="274.25,-70 160,-70 160,-50 274.25,-50 274.25,-70"/>
<text xml:space="preserve" text-anchor="middle" x="217.12" y="-56.5" font-family="Helvetica,sans-Serif" font-size="10.00">ssd1306_gram_update</text>
</a>
</g>
</g>
<!-- Node1&#45;&gt;Node2 -->
<g id="edge1_Node000001_Node000002" class="edge">
<title>Node1&#45;&gt;Node2</title>
<g id="a_edge1_Node000001_Node000002"><a xlink:title=" ">
<path fill="none" stroke="#63b8ff" d="M124.4,-46.82C132.32,-47.96 140.46,-49.13 148.47,-50.28"/>
<polygon fill="#63b8ff" stroke="#63b8ff" points="147.78,-53.72 158.17,-51.67 148.77,-46.79 147.78,-53.72"/>
</a>
</g>
</g>
<!-- Node3 -->
<g id="Node000003" class="node">
<title>Node3</title>
<g id="a_Node000003"><a xlink:href="group__ssd1306__base__driver.html#gab8ecebeae67b19ff6f9e097f4aafb81b" target="_top" xlink:title="draw a string in the gram">
<polygon fill="white" stroke="#666666" points="270.12,-32 164.12,-32 164.12,0 270.12,0 270.12,-32"/>
<text xml:space="preserve" text-anchor="start" x="172.12" y="-18.5" font-family="Helvetica,sans-Serif" font-size="10.00">ssd1306_gram_write</text>
<text xml:space="preserve" text-anchor="middle" x="217.12" y="-6.5" font-family="Helvetica,sans-Serif" font-size="10.00">_string</text>
</a>
</g>
</g>
<!-- Node1&#45;&gt;Node3 -->
<g id="edge2_Node000001_Node000003" class="edge">
<title>Node1&#45;&gt;Node3</title>
<g id="a_edge2_Node000001_Node000003"><a xlink:title=" ">
<path fill="none" stroke="#63b8ff" d="M124.4,-29.18C133.75,-27.84 143.41,-26.45 152.79,-25.1"/>
<polygon fill="#63b8ff" stroke="#63b8ff" points="153.17,-28.58 162.57,-23.69 152.17,-21.65 153.17,-28.58"/>
</a>
</g>
</g>
</g>
</svg>
