<?xml version="1.0" encoding="UTF-8" standalone="no"?>
<!DOCTYPE svg PUBLIC "-//W3C//DTD SVG 1.1//EN"
 "http://www.w3.org/Graphics/SVG/1.1/DTD/svg11.dtd">
<!-- Generated by graphviz version 13.1.0 (20250701.0955)
 -->
<!-- Title: ssd1306 driver function Pages: 1 -->
<svg width="282pt" height="290pt"
 viewBox="0.00 0.00 282.00 290.00" xmlns="http://www.w3.org/2000/svg" xmlns:xlink="http://www.w3.org/1999/xlink">
<g id="graph0" class="graph" transform="scale(1 1) rotate(0) translate(4 286)">
<title>ssd1306 driver function</title>
<!-- Node3 -->
<g id="Node000003" class="node">
<title>Node3</title>
<g id="a_Node000003"><a xlink:href="group__ssd1306__base__driver.html" target="_top" xlink:title="ssd1306 base driver modules">
<polygon fill="white" stroke="#666666" points="265.25,-282 161.5,-282 161.5,-250 265.25,-250 265.25,-282"/>
<text xml:space="preserve" text-anchor="start" x="169.5" y="-268.5" font-family="Helvetica,sans-Serif" font-size="10.00">ssd1306 base driver</text>
<text xml:space="preserve" text-anchor="middle" x="213.38" y="-256.5" font-family="Helvetica,sans-Serif" font-size="10.00"> function</text>
</a>
</g>
</g>
<!-- Node1 -->
<g id="Node000001" class="node">
<title>Node1</title>
<g id="a_Node000001"><a xlink:title="ssd1306 driver modules">
<polygon fill="#999999" stroke="#666666" points="117.25,-151 0,-151 0,-131 117.25,-131 117.25,-151"/>
<text xml:space="preserve" text-anchor="middle" x="58.62" y="-137.5" font-family="Helvetica,sans-Serif" font-size="10.00">ssd1306 driver function</text>
</a>
</g>
</g>
<!-- Node1&#45;&gt;Node3 -->
<g id="edge2" class="edge">
<title>Node1&#45;&gt;Node3</title>
<path fill="none" stroke="black" d="M73.78,-160.47C90.63,-182.49 120.61,-218.22 153.25,-241 157.73,-244.12 162.66,-246.97 167.7,-249.53"/>
<polygon fill="black" stroke="black" points="76.71,-158.54 67.91,-152.63 71.1,-162.73 76.71,-158.54"/>
</g>
<!-- Node6 -->
<g id="Node000006" class="node">
<title>Node6</title>
<g id="a_Node000006"><a xlink:href="group__ssd1306__example__driver.html" target="_top" xlink:title="ssd1306 example driver modules">
<polygon fill="white" stroke="#666666" points="273.12,-232 153.62,-232 153.62,-200 273.12,-200 273.12,-232"/>
<text xml:space="preserve" text-anchor="start" x="161.62" y="-218.5" font-family="Helvetica,sans-Serif" font-size="10.00">ssd1306 example driver</text>
<text xml:space="preserve" text-anchor="middle" x="213.38" y="-206.5" font-family="Helvetica,sans-Serif" font-size="10.00"> function</text>
</a>
</g>
</g>
<!-- Node1&#45;&gt;Node6 -->
<g id="edge5" class="edge">
<title>Node1&#45;&gt;Node6</title>
<path fill="none" stroke="black" d="M88.07,-157.05C106.45,-167.21 131.01,-180.38 153.25,-191 159.28,-193.88 165.74,-196.78 172.08,-199.54"/>
<polygon fill="black" stroke="black" points="89.79,-154 79.35,-152.2 86.38,-160.12 89.79,-154"/>
</g>
<!-- Node4 -->
<g id="Node000004" class="node">
<title>Node4</title>
<g id="a_Node000004"><a xlink:href="group__ssd1306__extend__driver.html" target="_top" xlink:title="ssd1306 extend driver modules">
<polygon fill="white" stroke="#666666" points="269.38,-182 157.38,-182 157.38,-150 269.38,-150 269.38,-182"/>
<text xml:space="preserve" text-anchor="start" x="165.38" y="-168.5" font-family="Helvetica,sans-Serif" font-size="10.00">ssd1306 extend driver</text>
<text xml:space="preserve" text-anchor="middle" x="213.38" y="-156.5" font-family="Helvetica,sans-Serif" font-size="10.00"> function</text>
</a>
</g>
</g>
<!-- Node1&#45;&gt;Node4 -->
<g id="edge3" class="edge">
<title>Node1&#45;&gt;Node4</title>
<path fill="none" stroke="black" d="M128.5,-152.27C138.07,-153.84 147.79,-155.43 157.07,-156.95"/>
<polygon fill="black" stroke="black" points="129.3,-148.86 118.87,-150.7 128.17,-155.77 129.3,-148.86"/>
</g>
<!-- Node5 -->
<g id="Node000005" class="node">
<title>Node5</title>
<g id="a_Node000005"><a xlink:href="group__ssd1306__interface__driver.html" target="_top" xlink:title="ssd1306 interface driver modules">
<polygon fill="white" stroke="#666666" points="273.5,-132 153.25,-132 153.25,-100 273.5,-100 273.5,-132"/>
<text xml:space="preserve" text-anchor="start" x="161.25" y="-118.5" font-family="Helvetica,sans-Serif" font-size="10.00">ssd1306 interface driver</text>
<text xml:space="preserve" text-anchor="middle" x="213.38" y="-106.5" font-family="Helvetica,sans-Serif" font-size="10.00"> function</text>
</a>
</g>
</g>
<!-- Node1&#45;&gt;Node5 -->
<g id="edge4" class="edge">
<title>Node1&#45;&gt;Node5</title>
<path fill="none" stroke="black" d="M128.64,-129.7C136.7,-128.39 144.86,-127.05 152.77,-125.76"/>
<polygon fill="black" stroke="black" points="128.17,-126.23 118.87,-131.3 129.3,-133.14 128.17,-126.23"/>
</g>
<!-- Node2 -->
<g id="Node000002" class="node">
<title>Node2</title>
<g id="a_Node000002"><a xlink:href="group__ssd1306__link__driver.html" target="_top" xlink:title="ssd1306 link driver modules">
<polygon fill="white" stroke="#666666" points="262.25,-82 164.5,-82 164.5,-50 262.25,-50 262.25,-82"/>
<text xml:space="preserve" text-anchor="start" x="172.5" y="-68.5" font-family="Helvetica,sans-Serif" font-size="10.00">ssd1306 link driver</text>
<text xml:space="preserve" text-anchor="middle" x="213.38" y="-56.5" font-family="Helvetica,sans-Serif" font-size="10.00"> function</text>
</a>
</g>
</g>
<!-- Node1&#45;&gt;Node2 -->
<g id="edge1" class="edge">
<title>Node1&#45;&gt;Node2</title>
<path fill="none" stroke="black" d="M88.07,-124.95C106.45,-114.79 131.01,-101.62 153.25,-91 159.28,-88.12 165.74,-85.22 172.08,-82.46"/>
<polygon fill="black" stroke="black" points="86.38,-121.88 79.35,-129.8 89.79,-128 86.38,-121.88"/>
</g>
<!-- Node7 -->
<g id="Node000007" class="node">
<title>Node7</title>
<g id="a_Node000007"><a xlink:href="group__ssd1306__test__driver.html" target="_top" xlink:title="ssd1306 test driver modules">
<polygon fill="white" stroke="#666666" points="263,-32 163.75,-32 163.75,0 263,0 263,-32"/>
<text xml:space="preserve" text-anchor="start" x="171.75" y="-18.5" font-family="Helvetica,sans-Serif" font-size="10.00">ssd1306 test driver</text>
<text xml:space="preserve" text-anchor="middle" x="213.38" y="-6.5" font-family="Helvetica,sans-Serif" font-size="10.00"> function</text>
</a>
</g>
</g>
<!-- Node1&#45;&gt;Node7 -->
<g id="edge6" class="edge">
<title>Node1&#45;&gt;Node7</title>
<path fill="none" stroke="black" d="M73.78,-121.53C90.63,-99.51 120.61,-63.78 153.25,-41 157.73,-37.88 162.66,-35.03 167.7,-32.47"/>
<polygon fill="black" stroke="black" points="71.1,-119.27 67.91,-129.37 76.71,-123.46 71.1,-119.27"/>
</g>
</g>
</svg>
